<svg id="android" xmlns="http://www.w3.org/2000/svg" width="163.237" height="24.873" viewBox="0 0 163.237 24.873">
  <path id="Caminho_3357" data-name="Caminho 3357" d="M25.62,21.989a6.512,6.512,0,0,1,5.2,2.506V22.31h3.561V38.534H31.819A1.013,1.013,0,0,1,30.8,37.516V36.348a6.4,6.4,0,0,1-5.182,2.525c-4.447,0-7.82-3.806-7.82-8.442s3.373-8.442,7.82-8.442m.641,3.241a4.873,4.873,0,0,0-4.843,5.2c0,2.921,1.941,5.2,4.843,5.2a4.873,4.873,0,0,0,4.843-5.2c0-2.921-1.941-5.2-4.843-5.2M38.433,22.31h3.58v2.2a5.6,5.6,0,0,1,4.937-2.525c3.769,0,6.2,2.657,6.2,6.783v9.761H50.587a1.013,1.013,0,0,1-1.018-1.018V29.357c0-2.563-1.3-4.127-3.373-4.127-2.374,0-4.183,1.847-4.183,5.314v7.989H39.451a1.013,1.013,0,0,1-1.018-1.018Zm25.363-.32A6.512,6.512,0,0,1,69,24.5V14.207h3.561V38.552H70a1.013,1.013,0,0,1-1.018-1.018V36.367a6.483,6.483,0,0,1-5.2,2.506c-4.447,0-7.82-3.806-7.82-8.442.019-4.635,3.392-8.442,7.839-8.442m.641,3.241a4.873,4.873,0,0,0-4.843,5.2c0,2.921,1.941,5.2,4.843,5.2a4.873,4.873,0,0,0,4.843-5.2,4.873,4.873,0,0,0-4.843-5.2M76.609,22.31H80.17v2.883a4.571,4.571,0,0,1,4.277-3.053,7.258,7.258,0,0,1,1.394.132v3.674a5.755,5.755,0,0,0-1.79-.3c-2.054,0-3.9,1.715-3.9,4.975v7.914H77.589a1.013,1.013,0,0,1-1.018-1.018V22.31ZM95.49,38.873a8.442,8.442,0,1,1,8.5-8.442,8.37,8.37,0,0,1-8.5,8.442m0-3.316a4.856,4.856,0,0,0,4.861-5.125,4.886,4.886,0,1,0-9.761,0,4.875,4.875,0,0,0,4.9,5.125m13.171-16.789a2.384,2.384,0,1,1,0-4.767,2.384,2.384,0,0,1,0,4.767M106.89,22.31h3.561V38.534h-2.544a1.013,1.013,0,0,1-1.018-1.018Zm14.321-.32a6.512,6.512,0,0,1,5.2,2.506V14.207h3.561V38.552H127.41a1.013,1.013,0,0,1-1.018-1.018V36.367a6.483,6.483,0,0,1-5.2,2.506c-4.447,0-7.82-3.806-7.82-8.442.019-4.635,3.392-8.442,7.839-8.442m.66,3.241a4.873,4.873,0,0,0-4.843,5.2c0,2.921,1.941,5.2,4.843,5.2a4.873,4.873,0,0,0,4.843-5.2,4.873,4.873,0,0,0-4.843-5.2" transform="translate(-17.8 -14)"/>
  <path id="Caminho_3358" data-name="Caminho 3358" d="M686.018,33.21a1.809,1.809,0,1,1,1.809-1.809,1.809,1.809,0,0,1-1.809,1.809m-19.917,0A1.809,1.809,0,1,1,667.91,31.4,1.809,1.809,0,0,1,666.1,33.21m20.558-10.854,3.618-6.237a.747.747,0,0,0-1.3-.735L685.321,21.7a22.079,22.079,0,0,0-9.252-2,22.452,22.452,0,0,0-9.271,1.979l-3.655-6.312a.747.747,0,0,0-1.3.735l3.6,6.237A21.313,21.313,0,0,0,654.4,39.372h43.282a21.2,21.2,0,0,0-11.023-17.015" transform="translate(-534.445 -14.8)" fill="#3ddc84"/>
</svg>
