<svg xmlns="http://www.w3.org/2000/svg" width="192.014" height="51.977" viewBox="0 0 192.014 51.977">
  <g id="angular" transform="translate(0 0)">
    <path id="Caminho_3224" data-name="Caminho 3224" d="M37.363,48.707V25.095H40.4L54.836,44.109V25.095h2.887V48.707H54.686l-14.453-19.2v19.2H37.346Zm43.877-.937a17.542,17.542,0,0,1-6.149,1.087q-12.824,0-12.826-12.3c0-7.762,4.125-11.664,12.393-11.664a21.816,21.816,0,0,1,6.6.977V28.5a17.2,17.2,0,0,0-6.263-1.163c-6.45,0-9.676,3.076-9.676,9.15,0,6.563,3.187,9.827,9.525,9.827a16.564,16.564,0,0,0,3.376-.412V37.986h3.037v9.787Zm4.875-8.176V25.081h3.037V39.593q0,6.808,6.808,6.808c4.5,0,6.808-2.269,6.808-6.808V25.081h3.037V39.593c0,6.188-3.264,9.3-9.827,9.3s-9.827-3.112-9.827-9.3Zm28.128-14.5V46.263h12.393v2.475H111.224V25.095h3.037Zm16.764,23.626H127.82L139.554,22l11.739,26.738h-3.376l-3.037-7.426h-7.8l.826-2.475h5.963L139.441,28.15,131,48.738Zm23.551,0V25.095h10.089c4.5,0,6.75,1.875,6.75,5.663,0,3.076-2.213,5.362-6.6,6.808L172.9,48.7h-4.015l-7.5-10.613v-1.95c4.5-.712,6.808-2.437,6.808-5.212,0-2.175-1.222-3.264-3.749-3.264h-6.75V48.707H154.58Z" transform="translate(19.115 -10.17)" fill="#b52e31"/>
    <g id="Grupo_1557" data-name="Grupo 1557" transform="translate(0 0)">
      <path id="Caminho_3225" data-name="Caminho 3225" d="M5,23.847l24.188-8.623L54.015,23.7,50,55.687,29.188,67.2,8.713,55.853Z" transform="translate(-5 -15.222)" fill="#e23237"/>
      <path id="Caminho_3226" data-name="Caminho 3226" d="M43.684,23.7,18.857,15.223V67.2L39.671,55.686,43.685,23.7Z" transform="translate(5.331 -15.223)" fill="#b52e31"/>
      <path id="Caminho_3227" data-name="Caminho 3227" d="M25.32,18.71,10.242,52.219l5.626-.112,3.037-7.576H32.368l3.317,7.651,5.362.112-15.713-33.6Zm.035,10.763,5.1,10.651H20.89l4.465-10.648Z" transform="translate(-1.092 -12.636)" fill="#fff"/>
    </g>
  </g>
</svg>
