<svg xmlns="http://www.w3.org/2000/svg" xmlns:xlink="http://www.w3.org/1999/xlink" width="331.7" height="331.8" viewBox="0 0 331.7 331.8">
  <defs>
    <clipPath id="clip-path">
      <path id="Caminho_3372" data-name="Caminho 3372" d="M342.4,175.6a162.135,162.135,0,0,1-5.6,42.6,165.776,165.776,0,1,1,5.6-42.6Z" transform="translate(-742.7 1358.8)" fill="aqua"/>
    </clipPath>
  </defs>
  <g id="avatar_2" transform="translate(732 -1368.5)" clip-path="url(#clip-path)">
    <g id="avatar" transform="translate(-742.7 1358.8)">
      <path id="Caminho_3257" data-name="Caminho 3257" d="M342.4,175.6a162.135,162.135,0,0,1-5.6,42.6,165.776,165.776,0,1,1,5.6-42.6Z" fill="aqua"/>
      <g id="Grupo_1621" data-name="Grupo 1621" transform="translate(-45.116 -16.14)">
        <g id="Grupo_1570" data-name="Grupo 1570" transform="translate(168.7 196.629)">
          <g id="Grupo_1569" data-name="Grupo 1569">
            <g id="Grupo_1568" data-name="Grupo 1568">
              <g id="Grupo_1567" data-name="Grupo 1567">
                <path id="Caminho_3260" data-name="Caminho 3260" d="M254.579,171.123l6.568,64.338s-24.395,15.816-56.3,19.3C161.691,259.588,144.8,236,144.8,236l-6.7-75.6Z" transform="translate(-138.1 -160.4)" fill="#f27e64"/>
              </g>
            </g>
          </g>
        </g>
        <g id="Grupo_1620" data-name="Grupo 1620" transform="translate(48.2 53.961)">
          <g id="Grupo_1571" data-name="Grupo 1571" transform="translate(107.9 177.384)">
            <path id="Caminho_3261" data-name="Caminho 3261" d="M146.661,198.363s14.878,14.074,49.192,14.878S260.325,186.3,260.325,186.3l22.116,40.613-54.687,33.375-91.682-7.774L128.7,233.749Z" transform="translate(-128.7 -186.3)" fill="#7c6053"/>
          </g>
          <g id="Grupo_1619" data-name="Grupo 1619">
            <g id="Grupo_1565" data-name="Grupo 1565" transform="translate(55.206 79.025)">
              <path id="Caminho_3258" data-name="Caminho 3258" d="M113.933,158.2c-9.115,2.681-19.435-5.093-23.188-17.425s.536-24.663,9.651-27.344c5.5-1.608,11.527.67,16.219,5.5l1.877,15.414,2.949,17.961A13.175,13.175,0,0,1,113.933,158.2Z" transform="translate(-89.387 -112.918)" fill="#ff9682" stroke="#ff9682" stroke-miterlimit="10" stroke-width="1.142"/>
              <line id="Linha_46" data-name="Linha 46" x2="11.795" y2="16.084" transform="translate(9.534 14.452)" fill="none" stroke="#09182d" stroke-miterlimit="10" stroke-width="0.992"/>
            </g>
            <g id="Grupo_1566" data-name="Grupo 1566" transform="translate(0 188.509)">
              <path id="Caminho_3259" data-name="Caminho 3259" d="M435.032,227.841c-25.2,95.167-111.787,165.268-214.862,165.268A222.142,222.142,0,0,1,48.2,311.749c65.008-79.618,135.11-88.2,135.11-88.2s-1.608-12.063,0-15.28c1.206-2.279,5.63-4.423,8.042-5.361.938-.4,1.608-.67,1.608-.67s3.485-.67,9.115-1.474c11.125-1.742,30.292-4.557,45.171-5.63,4.557-.4,8.712-.536,12.063-.536a23.048,23.048,0,0,1,8.042,1.072c1.877.8,4.021,6.568,4.021,6.568s27.478-4.289,65.544,0C352.733,204.117,392.542,211.489,435.032,227.841Z" transform="translate(-48.2 -194.6)" fill="#7c6053"/>
            </g>
            <path id="Caminho_3262" data-name="Caminho 3262" d="M224.034,229.021H165.191A55.517,55.517,0,0,1,109.7,173.53V121.791A55.517,55.517,0,0,1,165.191,66.3h58.842a55.517,55.517,0,0,1,55.492,55.492V173.53A55.6,55.6,0,0,1,224.034,229.021Z" transform="translate(-27.267 -49.761)" fill="#ff9682" stroke="#ff9682" stroke-miterlimit="10" stroke-width="1.142"/>
            <g id="Grupo_1572" data-name="Grupo 1572" transform="translate(243.144 69.543)">
              <path id="Caminho_3263" data-name="Caminho 3263" d="M238.312,157.657c10.321,3.083,22.25-5.9,26.539-19.972,4.289-14.208-.67-28.148-10.991-31.231-6.3-1.877-13.27.67-18.631,6.3l-2.145,17.559L229.6,150.955A16.468,16.468,0,0,0,238.312,157.657Z" transform="translate(-229.6 -105.845)" fill="#ff9682" stroke="#ff9682" stroke-miterlimit="10" stroke-width="1.142"/>
              <line id="Linha_47" data-name="Linha 47" x1="13.538" y2="18.363" transform="translate(12.465 16.561)" fill="none" stroke="#09182d" stroke-miterlimit="10" stroke-width="0.992"/>
            </g>
            <g id="Grupo_1581" data-name="Grupo 1581" transform="translate(110.179 60.462)">
              <g id="Grupo_1573" data-name="Grupo 1573" transform="translate(12.465 22.962)">
                <path id="Caminho_3266" data-name="Caminho 3266" d="M205.338,125.717c0,5.227-2.949,9.517-6.7,9.517s-6.836-4.155-6.836-9.517c0-5.227,2.949-9.517,6.7-9.517S205.338,120.489,205.338,125.717Z" transform="translate(-121.966 -116.2)" fill="#09182d"/>
                <path id="Caminho_3267" data-name="Caminho 3267" d="M153.238,125.817c0,5.227-3.083,9.517-6.836,9.517s-6.7-4.289-6.7-9.517,3.083-9.517,6.836-9.517S153.372,120.589,153.238,125.817Z" transform="translate(-139.7 -116.166)" fill="#09182d"/>
              </g>
              <g id="Grupo_1575" data-name="Grupo 1575">
                <g id="Grupo_1574" data-name="Grupo 1574">
                  <path id="Caminho_3268" data-name="Caminho 3268" d="M130.4,107.689a17.138,17.138,0,0,1,6.836-5.9c8.176-4.423,18.363-3.083,26.137,1.34.134,0,0,.134,0,.134-11.393-4.289-24.127-4.155-32.973,4.423Z" transform="translate(-130.4 -99.069)" fill="#09182d"/>
                </g>
              </g>
              <g id="Grupo_1577" data-name="Grupo 1577" transform="translate(78.445 1.263)">
                <g id="Grupo_1576" data-name="Grupo 1576">
                  <path id="Caminho_3269" data-name="Caminho 3269" d="M221.865,107.5c-9.383-7.372-21.714-6.97-32.839-4.423-.134,0-.134-.134,0-.134,5.5-2.011,11.527-3.351,17.291-2.815,5.5.536,12.331,2.949,15.548,7.372Z" transform="translate(-188.925 -100.011)" fill="#09182d"/>
                </g>
              </g>
              <g id="Grupo_1579" data-name="Grupo 1579" transform="translate(30.635 58.482)">
                <g id="Grupo_1578" data-name="Grupo 1578">
                  <path id="Caminho_3270" data-name="Caminho 3270" d="M153.315,144.308c4.557,8.712,13.136,12.331,22.786,12.2a24.269,24.269,0,0,0,17.961-7.908,17.038,17.038,0,0,0,3.753-5.9c-.268,2.279-1.742,4.557-3.083,6.3a24.337,24.337,0,0,1-18.631,8.846c-4.691-.134-9.517-.8-13.672-3.083a21.672,21.672,0,0,1-9.115-10.455c-.134-.134,0-.134,0,0Z" transform="translate(-153.256 -142.7)" fill="#09182d"/>
                </g>
              </g>
              <g id="Grupo_1580" data-name="Grupo 1580" transform="translate(49.728 32.613)">
                <path id="Caminho_3271" data-name="Caminho 3271" d="M170.13,123.711l-2.63,22.1,13.565-4.736" transform="translate(-167.5 -123.294)" fill="#ff8056" stroke="#09182d" stroke-miterlimit="10" stroke-width="1.091" opacity="0.52"/>
                <path id="Caminho_3272" data-name="Caminho 3272" d="M169.913,123.4,167.5,145.918l13.806-4.825" transform="translate(-167.5 -123.4)" fill="none" stroke="#09182d" stroke-miterlimit="10" stroke-width="1.091"/>
              </g>
            </g>
            <g id="Grupo_1582" data-name="Grupo 1582" transform="translate(132.766 214.983)">
              <path id="Caminho_3273" data-name="Caminho 3273" d="M181.362,234.254a43.583,43.583,0,0,1-33.643-16.085,2.4,2.4,0,0,1,3.887-2.815c.67.8,15.414,20.374,42.892,12.063a2.375,2.375,0,0,1,1.34,4.557A49.037,49.037,0,0,1,181.362,234.254Z" transform="translate(-147.251 -214.351)" fill="#fff"/>
            </g>
            <path id="Caminho_3274" data-name="Caminho 3274" d="M119.5,90.2s34.984-16.084,57.5-6.7c0,0,70.1-17.559,87.392,6.7,0,0-33.911-40.211-86.454-35.922C177.94,54.281,134.78,63.664,119.5,90.2Z" transform="translate(-23.931 -53.961)" fill="#f4b23d"/>
            <path id="Caminho_3275" data-name="Caminho 3275" d="M271.851,140.532l-15.146,33.107c-4.557,10.991-22.92,22.786-36.86,27.612l2.949-65.946-8.042-.8c-.938,5.5-14.476,10.991-23.457,13l1.742,7.908c2.949-.67,13.4-3.217,21.178-8.444l-2.413,56.3h.268a14.565,14.565,0,0,1-2.413.134H194.646l-1.474,1.206L191.7,203.4H179.5a32.3,32.3,0,0,1-10.053-2.145L167.168,147.1c7.1,4.691,16.353,7.1,19.033,7.774l1.877-7.774c-8.176-1.877-20.508-7.238-21.312-12.465l-8.042.8L161.27,197.9c-11.929-5.9-24.8-15.548-30.158-23.993L118.78,145.625l-2.145-1.742-6.836-.134v6.836a55.517,55.517,0,0,0,55.492,55.492H224a55.517,55.517,0,0,0,55.492-55.492v-15.95Z" transform="translate(-27.233 -26.548)" fill="#c63" stroke="#c63" stroke-miterlimit="10" stroke-width="1" opacity="0.22"/>
          </g>
        </g>
      </g>
    </g>
  </g>
</svg>
