<svg xmlns="http://www.w3.org/2000/svg" width="94.263" height="114.034" viewBox="0 0 94.263 114.034">
  <g id="azure" transform="translate(-3.2 21.617)">
    <g id="Grupo_1615" data-name="Grupo 1615" transform="translate(3.2 65.383)">
      <path id="Caminho_3364" data-name="Caminho 3364" d="M50.843,83.988c-3.5-.212-5.507-2.224-6.037-5.931C44.7,77.1,44.7,77,44.7,70.643V64.5h2.966v5.931c0,5.4,0,6.037.106,6.355a5.259,5.259,0,0,0,1.377,3.283,3.812,3.812,0,0,0,2.118,1.165,6.4,6.4,0,0,0,2.012,0,4.577,4.577,0,0,0,2.33-1.271A6.677,6.677,0,0,0,57.2,77l.106-.424V64.5h3.177V83.353H57.3v-2.86a1.311,1.311,0,0,0-.212.318,5.994,5.994,0,0,1-2.436,2.436,6.192,6.192,0,0,1-3.813.741Z" transform="translate(-0.746 -56.98)" fill="#0089d6"/>
      <path id="Caminho_3365" data-name="Caminho 3365" d="M93.127,72.475a9.28,9.28,0,0,0-2.012-5.931A7.572,7.572,0,0,0,86.243,64a8.085,8.085,0,0,0-2.754.212A7.9,7.9,0,0,0,80.205,65.8a16.875,16.875,0,0,0-1.377,1.377A12.13,12.13,0,0,0,76.6,72.687a18.106,18.106,0,0,0,0,3.389c.424,3.071,1.695,5.4,3.919,6.778a8.5,8.5,0,0,0,3.6,1.165h2.86a10.675,10.675,0,0,0,4.448-1.589l.318-.212V79.466a1.311,1.311,0,0,1-.318.212A9.42,9.42,0,0,1,87.2,81.372a16.4,16.4,0,0,1-2.224.106A5.807,5.807,0,0,1,81.582,80a7.449,7.449,0,0,1-1.377-2.012,6.634,6.634,0,0,1-.635-2.86v-.318H92.915v-.847A3.6,3.6,0,0,0,93.127,72.475Zm-3.071-.212H79.676v-.212a5.585,5.585,0,0,1,.318-1.271,6.336,6.336,0,0,1,1.695-2.648,4.631,4.631,0,0,1,2.542-1.377,5.141,5.141,0,0,1,1.8,0,3.789,3.789,0,0,1,2.33,1.165,5.847,5.847,0,0,1,1.589,4.131v.212Z" transform="translate(1.136 -57.012)" fill="#0089d6"/>
      <g id="Grupo_1614" data-name="Grupo 1614">
        <path id="Caminho_3366" data-name="Caminho 3366" d="M3.3,82.4Z" transform="translate(-3.194 -55.922)" fill="#0089d6"/>
        <path id="Caminho_3367" data-name="Caminho 3367" d="M16.757,57.718l-.106-.318H13.474L8.284,70.639C5.53,77.947,3.2,83.878,3.2,83.984H6.589l1.271-3.6c.741-2.012,1.271-3.707,1.377-3.707V76.57H20.464l1.377,3.707,1.377,3.707h3.389C26.925,83.878,17.181,58.671,16.757,57.718Zm-1.8,15.993H10.4s.953-2.542,2.012-5.613c1.165-3.071,2.118-5.719,2.118-5.931.106-.318.212-.953.318-1.271,0-.424.106-.424.212,0,.212.953.318,1.271,2.436,7.1,1.165,3.071,2.118,5.613,2.118,5.719S17.5,73.711,14.956,73.711Z" transform="translate(-3.2 -57.4)" fill="#0089d6"/>
      </g>
      <path id="Caminho_3368" data-name="Caminho 3368" d="M26.512,83.035v-.53l5.613-7.732,5.613-7.732H27.571V64.5H42.187v.847l-5.613,7.732c-3.071,4.237-5.613,7.732-5.613,7.732H41.975v2.542H26.3v-.318Z" transform="translate(-1.834 -56.98)" fill="#0089d6"/>
      <path id="Caminho_3369" data-name="Caminho 3369" d="M65.4,83.488V64.424h2.966v3.813l.212-.424a7.081,7.081,0,0,1,1.695-2.648A4.377,4.377,0,0,1,72.708,64h1.059a4.7,4.7,0,0,1,1.377.212h.106v3.177l-.318-.212a4.3,4.3,0,0,0-2.012-.424,3.269,3.269,0,0,0-1.165.212,3.551,3.551,0,0,0-1.906,1.589,9.093,9.093,0,0,0-1.271,3.707V83.382H67.095C66.141,83.594,65.4,83.594,65.4,83.488Z" transform="translate(0.478 -57.01)" fill="#0089d6"/>
    </g>
    <g id="Grupo_1616" data-name="Grupo 1616" transform="translate(8.346 -21.617)">
      <path id="Caminho_3370" data-name="Caminho 3370" d="M56.249,63.886C67.1,61.926,76,60.418,76.149,60.418H76.3L66.048,48.358C60.47,41.725,55.8,36.147,55.8,36.147S66.35,7.051,66.35,6.9c0,0,7.236,12.362,17.337,30,9.5,16.583,17.337,30.151,17.488,30.3l.151.3H36.5C36.5,67.353,56.249,63.886,56.249,63.886Z" transform="translate(-17.354 -2.227)" fill="#0089d6"/>
      <path id="Caminho_3371" data-name="Caminho 3371" d="M23.8,61.69S28.624,53.4,34.5,43.147L45.207,24.6,57.72,14.2C64.5,8.473,70.233,3.8,70.233,3.8a1.167,1.167,0,0,1-.151.452c-.151.3-6.181,13.267-13.568,28.945L43.248,61.69H23.8Z" transform="translate(-23.8 -3.8)" fill="#0089d6"/>
    </g>
  </g>
</svg>
