<svg id="firebase" xmlns="http://www.w3.org/2000/svg" xmlns:xlink="http://www.w3.org/1999/xlink" width="167.644" height="46.928" viewBox="0 0 167.644 46.928">
  <defs>
    <linearGradient id="linear-gradient" x1="-0.035" y1="0.17" x2="1.008" y2="0.929" gradientUnits="objectBoundingBox">
      <stop offset="0" stop-color="#fff" stop-opacity="0.102"/>
      <stop offset="0.14" stop-color="#fff" stop-opacity="0.078"/>
      <stop offset="0.61" stop-color="#fff" stop-opacity="0.02"/>
      <stop offset="1" stop-color="#fff" stop-opacity="0"/>
    </linearGradient>
  </defs>
  <path id="Caminho_3228" data-name="Caminho 3228" d="M158.141,62.533H155V38.274h14.266v2.98H158.142v7.964h10.034v2.912H158.142v10.4Zm17.031-20.767a2.236,2.236,0,0,1-2.808.28,2.2,2.2,0,0,1-.824-2.68,2.226,2.226,0,0,1,4.28.84,2.11,2.11,0,0,1-.651,1.559h0Zm0,20.767h-3.141v-16.6h3.141v16.6Zm6.893,0h-3.141v-16.6h3v2.71h.136a4.264,4.264,0,0,1,1.963-2.237,5.645,5.645,0,0,1,2.885-.881,6.023,6.023,0,0,1,2.355.408l-1.195,2.912a4.782,4.782,0,0,0-1.672-.238,4.117,4.117,0,0,0-3.021,1.339,4.792,4.792,0,0,0-1.315,3.507l0,9.081Zm15.807.529a8.094,8.094,0,0,1-6.16-2.506,8.847,8.847,0,0,1-2.373-6.323,9.1,9.1,0,0,1,2.3-6.233,7.492,7.492,0,0,1,5.888-2.61,7.746,7.746,0,0,1,5.957,2.406,9.065,9.065,0,0,1,2.234,6.437l-.035.577H192.475a5.636,5.636,0,0,0,1.691,3.97,5.142,5.142,0,0,0,3.634,1.456,4.507,4.507,0,0,0,4.573-2.845l2.8,1.151a7.455,7.455,0,0,1-2.7,3.234,7.961,7.961,0,0,1-4.605,1.286Zm4.506-10.852a4.4,4.4,0,0,0-1.315-2.71,4.654,4.654,0,0,0-3.608-1.26,4.524,4.524,0,0,0-3.021,1.085,5.53,5.53,0,0,0-1.757,2.912l9.7-.026Zm14.693,10.852a7.147,7.147,0,0,1-3.419-.794,5.777,5.777,0,0,1-2.269-2.033h-.136v2.3h-3.005V38.274h3.141v7.657l-.136,2.3h.136a5.776,5.776,0,0,1,2.269-2.033,7.149,7.149,0,0,1,3.419-.813,7.388,7.388,0,0,1,5.6,2.541,9.611,9.611,0,0,1,0,12.6,7.339,7.339,0,0,1-5.6,2.528Zm-.512-2.845a5.011,5.011,0,0,0,3.754-1.644,6.04,6.04,0,0,0,1.571-4.354,6.04,6.04,0,0,0-1.571-4.354,5.148,5.148,0,0,0-7.525-.016,6.064,6.064,0,0,0-1.552,4.37,6.075,6.075,0,0,0,1.568,4.383,5.02,5.02,0,0,0,3.765,1.628l-.011-.013Zm16.463,2.845a6.621,6.621,0,0,1-4.453-1.525,5.053,5.053,0,0,1-1.792-4.031,4.967,4.967,0,0,1,2.117-4.251,8.636,8.636,0,0,1,5.221-1.54,9.013,9.013,0,0,1,4.533,1.016v-.474a3.693,3.693,0,0,0-1.264-2.93,4.554,4.554,0,0,0-3.1-1.088,4.844,4.844,0,0,0-2.475.643,3.326,3.326,0,0,0-1.52,1.763l-2.867-1.22a6.5,6.5,0,0,1,2.291-2.774,7.3,7.3,0,0,1,4.506-1.27,7.842,7.842,0,0,1,5.333,1.853,6.538,6.538,0,0,1,2.117,5.251V62.533h-3.013v-2.3h-.136a6.178,6.178,0,0,1-5.5,2.829Zm.512-2.845a5.132,5.132,0,0,0,3.536-1.427,4.455,4.455,0,0,0,1.6-3.4,6.24,6.24,0,0,0-4-1.085,5.221,5.221,0,0,0-3.448.982,2.941,2.941,0,0,0-1.16,2.3,2.213,2.213,0,0,0,1.067,1.932,4.241,4.241,0,0,0,2.405.712v-.013Zm17.373,2.845a7.544,7.544,0,0,1-4.624-1.355,8.026,8.026,0,0,1-2.667-3.388l2.8-1.151a4.625,4.625,0,0,0,4.533,3.118,4.167,4.167,0,0,0,2.4-.643,1.968,1.968,0,0,0,.939-1.694q0-1.625-2.291-2.2l-3.379-.813a8.062,8.062,0,0,1-3.037-1.54,3.7,3.7,0,0,1-1.435-3.065,4.182,4.182,0,0,1,1.963-3.573,7.924,7.924,0,0,1,4.658-1.371,7.813,7.813,0,0,1,3.957,1,5.648,5.648,0,0,1,2.491,2.864l-2.728,1.106q-.92-2.2-3.824-2.2a4.488,4.488,0,0,0-2.355.577,1.753,1.753,0,0,0-.955,1.559q0,1.424,2.219,1.932l3.309.781a6.205,6.205,0,0,1,3.483,1.853,4.48,4.48,0,0,1,1.125,2.98,4.606,4.606,0,0,1-1.843,3.727,7.279,7.279,0,0,1-4.744,1.5Zm16.9,0a8.094,8.094,0,0,1-6.16-2.506,8.866,8.866,0,0,1-2.373-6.337,9.1,9.1,0,0,1,2.3-6.233,7.5,7.5,0,0,1,5.9-2.6,7.721,7.721,0,0,1,5.957,2.406,9.147,9.147,0,0,1,2.235,6.437l-.035.577H262.4a5.636,5.636,0,0,0,1.691,3.97,5.143,5.143,0,0,0,3.643,1.45,4.507,4.507,0,0,0,4.573-2.845l2.8,1.151a7.452,7.452,0,0,1-2.7,3.234,7.946,7.946,0,0,1-4.61,1.292ZM272.31,52.21A4.4,4.4,0,0,0,271,49.5a4.646,4.646,0,0,0-3.6-1.26,4.527,4.527,0,0,0-3.021,1.085,5.53,5.53,0,0,0-1.757,2.912l9.7-.026Z" transform="translate(-108.018 -26.532)" opacity="0.54"/>
  <path id="Caminho_3229" data-name="Caminho 3229" d="M23.833,43.833,29.609,6.872A1.067,1.067,0,0,1,31.6,6.534l5.973,11.141,2.381-4.533a1.067,1.067,0,0,1,1.888,0l16.12,30.691H23.833Z" transform="translate(-23.815 -5.97)" fill="#ffa000"/>
  <path id="Caminho_3230" data-name="Caminho 3230" d="M43.788,50.413,37.575,38.647,23.833,64.81Z" transform="translate(-23.815 -26.947)" fill="#f57c00"/>
  <path id="Caminho_3231" data-name="Caminho 3231" d="M57.968,61.042,53.544,33.666a1.067,1.067,0,0,0-1.805-.576l-27.9,27.952L39.274,69.7a3.2,3.2,0,0,0,3.12,0l15.574-8.659Z" transform="translate(-23.815 -23.179)" fill="#ffca28"/>
  <path id="Caminho_3232" data-name="Caminho 3232" d="M53.51,16.458a1.067,1.067,0,0,0-1.805-.576l-5.539,5.552-4.355-8.291a1.067,1.067,0,0,0-1.888,0l-2.381,4.533L31.568,6.535a1.067,1.067,0,0,0-1.995.341L23.8,43.834h-.019l.019.021.152.075L51.7,16.154a1.067,1.067,0,0,1,1.808.576l4.387,27.131.043-.027L53.51,16.458ZM23.851,43.783,29.576,7.137a1.067,1.067,0,0,1,2-.341l5.973,11.141L39.925,13.4a1.067,1.067,0,0,1,1.888,0l4.267,8.115L23.85,43.783Z" transform="translate(-23.781 -5.971)" fill="rgba(255,255,255,0.2)"/>
  <path id="Caminho_3233" data-name="Caminho 3233" d="M42.394,119.676a3.2,3.2,0,0,1-3.12,0l-15.4-8.635-.037.237,15.44,8.656a3.2,3.2,0,0,0,3.12,0l15.574-8.656-.04-.245-15.534,8.643Z" transform="translate(-23.815 -73.416)" fill="#a52714" opacity="0.2"/>
  <path id="Caminho_3234" data-name="Caminho 3234" d="M53.606,16.482a1.062,1.062,0,0,0-1.8-.576l-5.519,5.55-4.34-8.287a1.061,1.061,0,0,0-1.881,0L37.694,17.7,31.741,6.563a1.062,1.062,0,0,0-1.988.341L24,43.846,39.386,52.5a3.18,3.18,0,0,0,3.109,0l15.519-8.652L53.606,16.481Z" transform="translate(-23.922 -5.989)" fill="url(#linear-gradient)"/>
</svg>
