<svg xmlns="http://www.w3.org/2000/svg" width="37.094" height="37.094" viewBox="0 0 37.094 37.094">
  <path id="ic_email_ativo" d="M30.349,10.286v-8.6c0-.013,0-.025,0-.038,0-.032,0-.064,0-.1s0-.048-.007-.072-.008-.06-.014-.091-.009-.05-.015-.075-.014-.056-.021-.084-.015-.052-.023-.078-.018-.051-.028-.076S30.213,1.023,30.2,1s-.022-.046-.033-.069S30.14.874,30.125.848,30.1.806,30.087.785s-.035-.054-.054-.08C30.026.7,30.02.685,30.012.674L29.989.647C29.97.623,29.951.6,29.931.577S29.9.537,29.877.518,29.839.48,29.82.462,29.777.421,29.755.4L29.7.357C29.674.338,29.65.319,29.625.3l-.062-.04c-.025-.016-.049-.031-.075-.045L29.416.179c-.023-.012-.047-.024-.071-.034s-.056-.023-.084-.034L29.195.087c-.03-.01-.06-.018-.09-.026L29.037.043c-.029-.007-.059-.012-.089-.017L28.871.014,28.789.007,28.7,0l-.036,0H1.686L1.65,0l-.09,0L1.479.014,1.4.026c-.03.005-.06.01-.089.017L1.245.06c-.03.008-.061.017-.091.027L1.089.111C1.06.122,1.032.133,1,.145L.934.179.861.216C.836.231.811.246.786.262L.725.3C.7.319.675.338.651.357L.595.4C.572.421.551.441.529.462S.491.5.472.517.436.557.418.577.379.623.36.647L.337.674C.33.685.324.7.316.706Q.288.745.263.785C.249.806.237.827.225.848S.2.9.181.928.158.974.148,1s-.022.053-.033.079S.1,1.128.087,1.153.071,1.2.064,1.231s-.015.055-.021.084-.01.05-.015.075-.01.06-.014.091-.005.048-.007.073,0,.064,0,.1c0,.013,0,.025,0,.038V21.919A1.686,1.686,0,0,0,1.686,23.6h11.8v1.686a11.8,11.8,0,1,0,23.6,0V18.547A8.445,8.445,0,0,0,30.349,10.286ZM23.6,3.372l-8.43,6.323L6.744,3.372ZM3.372,5.058l10.791,8.093a1.686,1.686,0,0,0,2.023,0L26.977,5.058v5.226a8.435,8.435,0,0,0-6.744,8.262v1.686H3.372ZM33.721,25.291a8.43,8.43,0,1,1-16.861,0V23.6h3.372v.562a5.058,5.058,0,1,0,10.116,0V18.221a1.686,1.686,0,1,0-3.372,0v5.946a1.686,1.686,0,1,1-3.372,0V18.547a5.058,5.058,0,0,1,10.116,0Z" fill="aqua"/>
</svg>
