<svg xmlns="http://www.w3.org/2000/svg" width="26.358" height="25.699" viewBox="0 0 26.358 25.699">
  <path id="ic_github" d="M8.816,21.256c0,.106-.122.191-.276.191-.175.016-.3-.069-.3-.191,0-.106.122-.191.276-.191C8.678,21.048,8.816,21.133,8.816,21.256Zm-1.653-.239c-.037.106.069.229.229.26a.249.249,0,0,0,.329-.106c.032-.106-.069-.229-.229-.276A.273.273,0,0,0,7.163,21.016Zm2.349-.09c-.154.037-.26.138-.244.26.016.106.154.175.314.138s.26-.138.244-.244S9.666,20.91,9.512,20.926ZM13.009.563A12.743,12.743,0,0,0,0,13.529,13.323,13.323,0,0,0,9.007,26.24c.68.122.919-.3.919-.643,0-.329-.016-2.147-.016-3.263,0,0-3.72.8-4.5-1.584,0,0-.606-1.546-1.477-1.945,0,0-1.217-.834.085-.818a2.805,2.805,0,0,1,2.051,1.371,2.809,2.809,0,0,0,3.874,1.111,2.954,2.954,0,0,1,.85-1.791c-2.971-.329-5.968-.76-5.968-5.872a4.027,4.027,0,0,1,1.254-3.13,5.021,5.021,0,0,1,.138-3.608C7.328,5.722,9.884,7.5,9.884,7.5a12.554,12.554,0,0,1,6.675,0s2.556-1.786,3.667-1.435a5.018,5.018,0,0,1,.138,3.608,4.131,4.131,0,0,1,1.371,3.13c0,5.128-3.13,5.537-6.1,5.872a3.143,3.143,0,0,1,.9,2.466c0,1.791-.016,4.007-.016,4.443,0,.345.244.765.919.643a13.2,13.2,0,0,0,8.917-12.7A13.03,13.03,0,0,0,13.009.563ZM5.165,18.891c-.069.053-.053.175.037.276.085.085.207.122.276.053.069-.053.053-.175-.037-.276C5.357,18.859,5.234,18.822,5.165,18.891Zm-.574-.43c-.037.069.016.154.122.207a.158.158,0,0,0,.229-.037c.037-.069-.016-.154-.122-.207C4.714,18.391,4.629,18.407,4.591,18.46Zm1.722,1.892c-.085.069-.053.229.069.329.122.122.276.138.345.053.069-.069.037-.229-.069-.329C6.542,20.283,6.382,20.267,6.313,20.352Zm-.606-.781c-.085.053-.085.191,0,.314s.229.175.3.122a.242.242,0,0,0,0-.329C5.931,19.555,5.792,19.5,5.707,19.571Z" transform="translate(0 -0.563)" fill="#fff"/>
</svg>
