<svg xmlns="http://www.w3.org/2000/svg" width="24.924" height="24.924" viewBox="0 0 24.924 24.924">
  <path id="ic_linkedin" d="M21.234,21.24H17.544V15.456c0-1.379-.028-3.154-1.923-3.154-1.924,0-2.218,1.5-2.218,3.052V21.24H9.711V9.347h3.545v1.621H13.3a3.89,3.89,0,0,1,3.5-1.921c3.74,0,4.431,2.461,4.431,5.665V21.24ZM5.543,7.719A2.143,2.143,0,1,1,7.686,5.575,2.141,2.141,0,0,1,5.543,7.719ZM7.393,21.24h-3.7V9.347h3.7ZM23.081,0H1.839A1.817,1.817,0,0,0,0,1.8V23.129a1.816,1.816,0,0,0,1.839,1.8H23.078a1.823,1.823,0,0,0,1.846-1.8V1.8A1.824,1.824,0,0,0,23.078,0Z" fill="#fff"/>
</svg>
