<svg xmlns="http://www.w3.org/2000/svg" width="40.187" height="40.187" viewBox="0 0 40.187 40.187">
  <path id="ic_whatsapp_ativo" d="M29.3,24.082c-.5-.251-2.959-1.452-3.416-1.618s-.792-.251-1.127.251-1.291,1.614-1.581,1.946-.584.352-1.082.126A13.59,13.59,0,0,1,18.071,22.3a15.192,15.192,0,0,1-2.78-3.466c-.291-.5-.032-.779.218-1.03.228-.226.5-.578.755-.876a4.245,4.245,0,0,0,.5-.831.92.92,0,0,0-.042-.877c-.126-.251-1.125-2.713-1.544-3.694-.4-.978-.815-.854-1.125-.854-.288-.025-.621-.025-.956-.025a1.888,1.888,0,0,0-1.335.6,5.59,5.59,0,0,0-1.75,4.144,9.8,9.8,0,0,0,2.041,5.149c.249.327,3.525,5.35,8.54,7.51,1.2.5,2.127.8,2.853,1.053a6.928,6.928,0,0,0,3.148.2c.961-.152,2.959-1.207,3.376-2.388a4.145,4.145,0,0,0,.3-2.386c-.124-.226-.452-.352-.954-.578M20.2,36.419h-.027A16.751,16.751,0,0,1,11.7,34.109l-.6-.358L4.822,35.383l1.683-6.1-.4-.628A16.607,16.607,0,0,1,31.97,8.165a16.39,16.39,0,0,1,4.871,11.7A16.628,16.628,0,0,1,20.206,36.421M34.36,5.775A20.331,20.331,0,0,0,20.169,0,19.909,19.909,0,0,0,2.84,29.869L0,40.187l10.608-2.766a20.2,20.2,0,0,0,9.561,2.423h.01A19.993,19.993,0,0,0,40.187,19.924,19.749,19.749,0,0,0,34.335,5.841" fill="aqua"/>
</svg>
