<svg xmlns="http://www.w3.org/2000/svg" xmlns:xlink="http://www.w3.org/1999/xlink" width="331.4" height="342.022" viewBox="0 0 331.4 342.022">
  <defs>
    <linearGradient id="linear-gradient" x1="-0.71" y1="2.892" x2="-0.71" y2="2.912" gradientUnits="objectBoundingBox">
      <stop offset="0" stop-color="#ffb09a"/>
      <stop offset="0.205" stop-color="#ff9b8d"/>
      <stop offset="0.47" stop-color="#ff8781"/>
      <stop offset="0.735" stop-color="#ff7b79"/>
      <stop offset="1" stop-color="#f77"/>
    </linearGradient>
    <linearGradient id="linear-gradient-2" x1="-2.597" y1="7.939" x2="-2.597" y2="7.999" gradientUnits="objectBoundingBox">
      <stop offset="0" stop-color="#ffe7d8"/>
      <stop offset="0.994" stop-color="#ce77f1"/>
    </linearGradient>
    <linearGradient id="linear-gradient-3" x1="-3.814" y1="5.082" x2="-4.05" y2="5.082" gradientUnits="objectBoundingBox">
      <stop offset="0" stop-color="#ffe7d8"/>
      <stop offset="0.287" stop-color="#fabdc9"/>
      <stop offset="0.594" stop-color="#f597bb"/>
      <stop offset="0.841" stop-color="#f280b3"/>
      <stop offset="0.994" stop-color="#f177b0"/>
    </linearGradient>
    <linearGradient id="linear-gradient-4" x1="-5.962" y1="2.891" x2="-5.962" y2="2.91" xlink:href="#linear-gradient"/>
    <linearGradient id="linear-gradient-5" x1="-12.98" y1="7.939" x2="-12.98" y2="7.999" xlink:href="#linear-gradient-2"/>
    <linearGradient id="linear-gradient-6" x1="-36.335" y1="5.099" x2="-36.583" y2="5.099" xlink:href="#linear-gradient-3"/>
    <linearGradient id="linear-gradient-7" x1="-1.29" y1="1.276" x2="-1.29" y2="1.283" gradientUnits="objectBoundingBox">
      <stop offset="0" stop-color="#fa9b76"/>
      <stop offset="0.114" stop-color="#f99c7c"/>
      <stop offset="0.427" stop-color="#f69e8a"/>
      <stop offset="0.655" stop-color="#fc9783"/>
      <stop offset="1" stop-color="#ff937f"/>
    </linearGradient>
    <linearGradient id="linear-gradient-8" x1="-0.364" y1="1.276" x2="-0.364" y2="1.283" xlink:href="#linear-gradient-7"/>
    <linearGradient id="linear-gradient-9" x1="0.031" y1="0.689" x2="0.031" y2="0.701" xlink:href="#linear-gradient"/>
    <linearGradient id="linear-gradient-10" x1="-3.798" y1="0.841" x2="-3.796" y2="0.852" gradientUnits="objectBoundingBox">
      <stop offset="0" stop-color="#ffe7d8"/>
      <stop offset="0.287" stop-color="#edbde1"/>
      <stop offset="0.594" stop-color="#dc97ea"/>
      <stop offset="0.841" stop-color="#d280ef"/>
      <stop offset="0.994" stop-color="#ce77f1"/>
    </linearGradient>
    <linearGradient id="linear-gradient-11" x1="-0.181" y1="1.15" x2="-0.181" y2="1.155" xlink:href="#linear-gradient-7"/>
    <linearGradient id="linear-gradient-12" x1="-0.446" y1="2.459" x2="-0.446" y2="2.486" gradientUnits="objectBoundingBox">
      <stop offset="0.006" stop-color="#ce77f1"/>
      <stop offset="0.159" stop-color="#d280ef"/>
      <stop offset="0.406" stop-color="#dc97ea"/>
      <stop offset="0.713" stop-color="#edbde1"/>
      <stop offset="1" stop-color="#ffe7d8"/>
    </linearGradient>
    <clipPath id="clip-path">
      <circle id="Elipse_5" data-name="Elipse 5" cx="165.7" cy="165.7" r="165.7" transform="translate(-5 -1)"/>
    </clipPath>
    <linearGradient id="linear-gradient-13" x1="-0.166" y1="0.509" x2="-0.166" y2="0.484" gradientUnits="objectBoundingBox">
      <stop offset="0" stop-color="#705ab5"/>
      <stop offset="0.191" stop-color="#8861c4"/>
      <stop offset="0.54" stop-color="#ae6ddd"/>
      <stop offset="0.82" stop-color="#c574ec"/>
      <stop offset="0.994" stop-color="#ce77f1"/>
    </linearGradient>
    <linearGradient id="linear-gradient-14" x1="-1.119" y1="0.605" x2="-1.111" y2="0.625" xlink:href="#linear-gradient-13"/>
    <linearGradient id="linear-gradient-15" x1="-0.274" y1="0.871" x2="-0.274" y2="0.831" xlink:href="#linear-gradient-13"/>
    <linearGradient id="linear-gradient-16" x1="0.499" y1="-0.003" x2="0.499" y2="0.756" gradientUnits="objectBoundingBox">
      <stop offset="0" stop-color="#f68374"/>
      <stop offset="0.397" stop-color="#fc877b"/>
      <stop offset="1" stop-color="#ff8a7f"/>
    </linearGradient>
    <linearGradient id="linear-gradient-17" x1="0.501" y1="0.999" x2="0.501" y2="0.001" gradientUnits="objectBoundingBox">
      <stop offset="0" stop-color="#ebdfff"/>
      <stop offset="0.996" stop-color="#bac6f8"/>
    </linearGradient>
    <clipPath id="clip-path-2">
      <path id="Caminho_3338" data-name="Caminho 3338" d="M189.3,128.8c.4.9,4.5,1.9,5.9,1.8,1.3-.1,16.7-2.2,24.5,0a16.649,16.649,0,0,0-3.6-9.1c-3.5-4.8-11.8-5.4-16.5-4.3C195,118.3,188.6,127.4,189.3,128.8Z"/>
    </clipPath>
    <linearGradient id="linear-gradient-18" x1="-55.407" y1="0.487" x2="-54.403" y2="0.487" xlink:href="#linear-gradient-7"/>
    <linearGradient id="linear-gradient-19" x1="0.531" y1="0.999" x2="0.531" y2="0.001" xlink:href="#linear-gradient-17"/>
    <clipPath id="clip-path-3">
      <path id="Caminho_3349" data-name="Caminho 3349" d="M144.8,128.8c-.4.9-4.5,1.9-5.9,1.8-1.3-.1-16.7-2.2-24.5,0a16.649,16.649,0,0,1,3.6-9.1c3.5-4.8,11.8-5.4,16.5-4.3C139.1,118.3,145.5,127.4,144.8,128.8Z"/>
    </clipPath>
    <linearGradient id="linear-gradient-20" x1="-44.214" y1="0.487" x2="-43.21" y2="0.487" xlink:href="#linear-gradient-7"/>
  </defs>
  <g id="im_matheus" transform="translate(0 0.122)">
    <g id="Camada_1">
      <circle id="Elipse_3" cx="165.7" cy="165.7" r="165.7" transform="translate(0 10.5)" fill="aqua"/>
      <g id="Grupo_1591" transform="translate(88.215 123.669)">
        <g id="Grupo_1589">
          <path id="Caminho_3276" d="M16.2,1.7S5.3-2.1,2.1-.6-5.7,9.1-5,18.7c.2,2.6,2.3,14.7,10.4,20.6C7.8,41,10.1,49,15.6,50.2c5.7,1.2,6.2-2.4,6.2-2.4Z" fill="url(#linear-gradient)"/>
          <path id="Caminho_3277" d="M19,23.9S12.9,5,4.8,7.6C-1.6,9.7-.6,23.4-.6,23.4S1.1,11,8.6,15c4,2.1-2.4,5.6-2.4,10.6s4.3,10.9,5.9,7.8C13.5,30.5,14.3,18.8,19,23.9Z" fill="#d26555" opacity="0.6"/>
          <path id="Caminho_3278" d="M18.5,21.4s-4.5-7.3-10.1-1,2.1,17.5,3.5,13.2c1.4-4.5,2.3-11.1,4.7-10.4a3.786,3.786,0,0,1,2.6,3.1Z" opacity="0.6" fill="url(#linear-gradient-2)"/>
          <path id="Caminho_3279" d="M11.9,48.3c.7,1,5.9,3.8,8.7,1,2.3-2.4-.9-20.6-1.2-23.1,0,0,1,19.3-.3,20.1C14.5,49,9.8,44.7,11.9,48.3Z" opacity="0.6" fill="url(#linear-gradient-3)"/>
        </g>
        <g id="Grupo_1590" transform="translate(141.652)">
          <path id="Caminho_3280" d="M.7,1.7S11.6-2.1,14.8-.6s7.8,9.7,7.1,19.3c-.2,2.6-2.3,14.7-10.4,20.6C9.1,41.1,6.8,49,1.2,50.2-4.5,51.5-5,47.8-5,47.8Z" fill="url(#linear-gradient-4)"/>
          <path id="Caminho_3281" d="M-1.9,23.9S4.2,5,12.3,7.6c6.4,2.1,5.4,15.8,5.4,15.8S16,11,8.5,15c-4,2.1,2.4,5.6,2.4,10.6S6.6,36.5,5,33.4C3.5,30.5,2.6,18.8-1.9,23.9Z" fill="#b5583f" opacity="0.6"/>
          <path id="Caminho_3282" d="M-1.5,21.4s4.5-7.3,10.1-1S6.5,37.9,5.1,33.6C3.7,29.1,2.8,22.5.4,23.2a3.786,3.786,0,0,0-2.6,3.1Z" opacity="0.6" fill="url(#linear-gradient-5)"/>
          <path id="Caminho_3283" d="M5.1,48.3c-.7,1-5.9,3.8-8.7,1-2.3-2.3.9-20.6,1.2-23,0,0-1,19.3.3,20.1C-3.8,45.2,4.9,48.5,5.1,48.3Z" opacity="0.6" fill="url(#linear-gradient-6)"/>
        </g>
      </g>
      <path id="Caminho_3284" d="M243.6,91.2l-5.2,105.7s-6.9,11.3-14.7,18-28.5,16.8-28.5,16.8L165.9,130" fill="url(#linear-gradient-7)"/>
      <path id="Caminho_3285" d="M94,91.2l5.2,105.7s6.9,11.3,14.7,18,28.5,16.8,28.5,16.8L171.8,130" fill="url(#linear-gradient-8)"/>
      <path id="Caminho_3286" d="M277.1,293.8s-73.6,3.5-108.8,3.5-108.8-3.5-108.8-3.5,43.7-12.8,48.6-21.3c2.4-4.2,3.5-19.4,3.8-33.7.3-13.9.2-26.7.2-26.7l56.2.7,56.2-.7s-.7,34.9,1.7,52.2c.5,3.8,1.2,6.8,2.1,8.3C233.4,281,277.1,293.8,277.1,293.8Z" fill="url(#linear-gradient-9)"/>
      <path id="Caminho_3287" d="M188.4,218.3c-12.5,21.9-13.9,46.7-8,63.7,1.9,5.6,28.5-55.7,26.2-63.7C204.6,210.2,194.8,207.1,188.4,218.3Z" opacity="0.6" fill="url(#linear-gradient-10)"/>
      <path id="Caminho_3288" d="M226.3,264.1c-.3,0-.9.3-1.2.2-35.6-10.2-27.4,17.5-55.7,17.5-14.2,0-33.1-29.3-42.2-37-8.3-6.9-15.4-6.2-15.4-6.2.3-13.9.2-26.7.2-26.7l56.2.7,56.2-.7C224.5,212.1,223.8,247,226.3,264.1Z" fill="#d57152" opacity="0.71"/>
      <path id="Caminho_3289" d="M237.7,149.1c0,.2-.2.5-.2.7-3.1,25.5-6.6,51.4-8.2,54.5a53.039,53.039,0,0,1-8.3,12.1,12.878,12.878,0,0,1-1.7,1.6c-2.9,2.6-11.8,6.2-17.2,8.2-1.4.5-2.8,1.1-4.2,1.7h0c-1.1.5-2.2,1.1-3.3,1.7-5.4,3.1-16.8,8.8-27.2,8.8-7.3,0-16.7-3.8-26-9.4-1.6-.9-3.1-1.7-4.9-2.6a16.317,16.317,0,0,1-1.9-.9c-1.4-.5-2.8-1-4.2-1.4-4-1.2-9.4-3.3-13-6.1-1.2-1-2.4-1.9-3.5-2.9l-.3-.3h0a41.66,41.66,0,0,1-8-10.6c-1.6-3.1-5.2-29.7-8.3-55.5v-.5C92.7,109.9,86.4,40,115,45.7c.9.2,1-1.2,1.6-1.7,14.4-14.4,39.6-18.4,50.3-18.4,10.2,0,34.7,4,49.1,16.3.8.7,1.5,1.3,2.3,2.1C229.4,54.9,255.4,25.7,237.7,149.1Z" fill="url(#linear-gradient-11)"/>
      <path id="Caminho_3290" d="M97.5,146.2c3.6,4.3,18.6,23.9,20.3,33.8s6.8,37.5,4.5,37c-3.8-1-24.1-16-25.2-53.8C96.3,139,95.4,143.6,97.5,146.2Z" fill="#e27d69" opacity="0.6"/>
      <path id="Caminho_3291" d="M239.4,149.6c-3.6,4.3-18.7,23.8-20.5,33.7-1.7,9.9-6.9,37.5-4.7,37,3.8-1,24.1-15.8,25.5-53.6C240.7,142.5,241.5,147,239.4,149.6Z" fill="#e98a74" opacity="0.6"/>
      <path id="Caminho_3292" d="M221,216.6a12.878,12.878,0,0,1-1.7,1.6c-2.9,2.6-11.8,6.2-17.2,8.2a42.567,42.567,0,0,0-7.5,3.5c-5.4,3.1-16.8,8.8-27.2,8.8-7.3,0-16.7-3.8-26-9.4a53.438,53.438,0,0,0-10.9-4.9c-4-1.2-9.4-3.3-13-6.1-1.2-1-2.4-1.9-3.5-2.9l-.3-.3c1.2.7,36.4,15.3,42.5,16.3,6.2,1.2,21.2,0,26.4-.5C187.7,230.1,220.5,216.8,221,216.6Z" opacity="0.6" fill="url(#linear-gradient-12)"/>
      <path id="Caminho_3293" d="M228.2,199.2c-2.6,5.7-13.7,14.1-15.3,13.7-1.6-.5-4.9-12.1-3.6-21,1.4-8.8-2.3-22.9-4.9-22.2,0,0,.7,4-2.1,5.9-6.8,4.7-17.7-4.7-21-4.7-6.8,0-13.6,3.3-15.3,3.3-3.3-.3-3-2.1-9.6-3.3-10.2-2.1-20.2,8.7-24.5,7.7-5-1.4-5.2-7.5-5.2-7.5-.7,2.8-4.5,12.1-3.3,21s-5,17.7-6.6,18.2-7.6-2.6-10.2-8.2c-2.6-5.7-8.8-32.3-8.8-32.3s-1.2,9.9-.7,16.1-1.7,12.7,10.1,25.3c2.6,2.8,24.1,25.9,30.4,29,3.8,1.9,6.2,6.4,4.5,7.3a49.686,49.686,0,0,0,23.8,3.6c4.5-.5,18.7-8,19.4-3.3,0,0,2.4.9,11.8-6.4,4.2-3.3,38.3-37.7,40.9-40.3,2.8-2.6,1.6-13.4,2.1-19.8a69.54,69.54,0,0,0-.5-13.7C239.4,167.8,230.8,193.5,228.2,199.2Zm-34.4,17.6c-1.6,1.6-20,10.2-28.5,10.2-8.7,0-23.1-5.7-24.8-7.3-1.6-1.6.3,5.6-4.7.2-9.2-9.7-10.8-29.3-10.2-31.4.7-2.9,5.4-9,10.6-6.9,6.2-1.1,25.3,1.6,32.8.6,17-2.3,30.4,4.3,37.8-3.3,1.9-1.9-.3,28.3-8.2,42-3.6,5.6-3.2-5.7-4.8-4.1Z" fill="#a05c0a"/>
      <path id="Caminho_3294" d="M206.1,172.9c-.9.2-4.3,6.1-9.4,4.9s-5.2,1-5.6,3.3c-.5,2.3.9,2.1,8,1.4,2.3-.2,5.6-4.5,6.8-5.6C207.3,175.5,207.2,172.7,206.1,172.9Z" fill="#594275" opacity="0.5"/>
      <path id="Caminho_3295" d="M125.8,177.9c-1.7,5.6-2.4,8.5-.7,6.8,1.6-1.7,5-4.5,8.7-4.3,3.6.3-4.3-2.4-4.9-3.1C127.5,175.5,126.7,175,125.8,177.9Z" fill="#594275" opacity="0.5"/>
      <path id="Caminho_3296" d="M141.1,231.2c-4.3.2-2.3,4.5,2.1,11.3,4.2,6.6,16,8.2,22.2,7.3,6.4-.9,17.7-12.3,22.7-4.3,2.1,3.3,8-26.5,3.6-24.3-4.3,2.4-11.5,15.3-21,14.4C161,234.6,145.9,231.2,141.1,231.2Z" fill="#594275" opacity="0.5"/>
      <path id="Caminho_3316" data-name="Caminho 3316" d="M179.9,174.2c-4.9-1.4-4.2,0-4.2,0a2.129,2.129,0,0,1,1.7,1.7s-8.8,4.7-13.5,1.9a32.445,32.445,0,0,1-4.8-3.3,50.659,50.659,0,0,1-11,4.3c-4.2,1.2,14.6,3.6,17.9,3.3,1.7-.2,20.5-2.8,20.5-3.5C186.7,178,184.8,175.6,179.9,174.2Z" fill="#594275" opacity="0.5"/>
      <path id="Caminho_3298" d="M113.1,211.7c1.6,4.2,14.7,16.3,16.5,16.5,1.7.3-3.6-10.4-6.4-12.7C120.2,213.5,112.1,209,113.1,211.7Z" fill="#594275" opacity="0.5"/>
      <path id="Caminho_3299" d="M213.6,214.5c-6.6,1-10.8,11.6-10.9,13s-2.4,8.5-3.5,8.8-1.4-4.2-1.9-3.8-2.8,5-1.2,6.8,4.2-1.6,12-10.4c7.8-9,21.5-19.6,20.1-19.6C226.4,209.5,217.1,214,213.6,214.5Z" fill="#594275" opacity="0.5"/>
      <path id="Caminho_3300" d="M142.8,222.5c-1.7,0,3.5,8.5,5.7,9.2,2.3.7,19.4,4.2,24.3,3.1s11.3-8.2,12-9.9-12.7,3.6-25.3,2.1C151.3,225.8,146.3,222.5,142.8,222.5Z" fill="#ffd1dd" opacity="0.5"/>
      <path id="Caminho_3301" d="M230.8,78.5c.2.2.3.2.7.3,3.8,2.1,8.2,2.6,12.5,3.5,1-13,1.4-24.3.5-27.8-2.8-9.2-30.5-21-35.2-34.2-1.2-3.3-13.5.3-13.9.5h0c.3-3.8,5.7-18.9,5.4-20.5s-5.4,1.6-7.3,5.4,1.2,14.6,1.2,14.6-21.3-15.4-29.1-13c-8.7,2.8-38.9,20.3-38.9,20.3L108,34.5C93.3,42.3,91,51.3,90.5,53.6c-.9,4.3.2,14.4,1.7,25.7h0c.3,2.8.9,5.6,1.2,8.3,0,.3.2.7.2,1a80.883,80.883,0,0,1,10.8-9.4h0c1.9-6.9,17-30.5,17.5-31.2-1.4,3.5-2.4,6.6-3.3,9.5a8.488,8.488,0,0,1,6.8-3,13.329,13.329,0,0,1,2.8.3,8.553,8.553,0,0,1,5.7-2.1,7.829,7.829,0,0,1,6.4,2.8c12.3-8.8,26.2-18.4,26.7-18.7h0a109.543,109.543,0,0,1,8.5,10.6c4.2.2,21-7.3,21-7.3,3.6,6.8,19.3,8.8,19.3,8.8h0C224.7,54.4,229.4,72.6,230.8,78.5Z" fill="#a05c0a"/>
      <path id="Caminho_3302" d="M93.5,87.7c-.5-2.8-.9-5.6-1.2-8.3,1.2,8.3-3.5-17.4,0-22.6C97.5,49,129.8,35.5,131,35.5c.7,0-6.4,8.5-9,12.7h0c-.5.7-15.4,24.3-17.5,31.2" fill="#594275" opacity="0.5"/>
      <path id="Caminho_3303" d="M154.6,34.4s-15.3-.2-18.6-2.6c0,0-7.5,4.3-9.9,12.8,0,0,6.4-1,12.7,5.4C138.8,49.9,153.4,38.1,154.6,34.4Z" fill="#ffd1dd" opacity="0.5"/>
      <path id="Caminho_3304" d="M133.8,31.8s-4.7,3.6-19.8,9c0,0-7.1-4.3-4.2-6.9a138.763,138.763,0,0,0,17.7-5.4S128.2,30.9,133.8,31.8Z" fill="#ffd1dd" opacity="0.5"/>
      <path id="Caminho_3305" d="M196.6,40.5s14.2-16.3,11.3-19.1c-3.1-2.8-12.7-.5-12.7-.5S201.3,33.7,196.6,40.5Z" fill="#594275" opacity="0.5"/>
      <path id="Caminho_3306" d="M171.1,38.9c1.6-6.9,2.3-18.9,0-22.7-3.6-6.4-15.1-4.7-15.1-4.7s7.5-1.7,12.1,0,9.4,3.8,8.7,10.2C175.9,28.5,171.1,38.9,171.1,38.9Z" fill="#594275" opacity="0.5"/>
      <path id="Caminho_3307" d="M107.2,61.7s43.9-5.6,59.3,0c0,0,46.2-7.3,64,0L221.2,41,202,34.4,174.2,32l-31.4-6.1L114.3,41.2Z" fill="#a05c0a"/>
      <path id="Caminho_3308" d="M224.3,48H191c5.7-1,10.6-13.9,10.6-13.9l-3.6-.3.2.9c-3.1,16.1-27.9,6.1-27.9,6.1l3.5-9-11.1-2.1c3,3,3.3,11.3,3.3,11.3l-32.1-9,.2-1.6-2.1,1s5.7,10.2,9.7,12c1.2.2,1.7.2,1,.3a2.935,2.935,0,0,1-1-.3c-5.7-.7-27.4-2.4-27.4-2.4l-6.9,20.6s43.9-5.6,59.3,0c0,0,46.2-7.3,64,0Z" fill="#594275" opacity="0.5"/>
      <path id="Caminho_3309" d="M244.6,56.3l-.7,26-12.8-1.9s-4.9-25.2-15.3-31.1h0c12-3.5,26.7.2,28.5,5.2" fill="#7b4f3f"/>
      <line id="Linha_48" y1="7.8" x2="4.3" transform="translate(234.1 53.9)" fill="none"/>
      <path id="Caminho_3310" d="M93.3,98.1" fill="#fff"/>
      <g id="Grupo_1595" transform="translate(5 11.438)">
        <g id="Grupo_1596" data-name="Grupo 1596">
          <g id="Grupo_1594" clip-path="url(#clip-path)">
            <g id="Grupo_1593" transform="translate(32.967 243.258)">
              <path id="Caminho_3311" d="M263.7,41.1H-3.8L53.4,18.7,59.7-2.5s9.1-.9,13.9-.3L72.4,4.8S87,20.2,130.1,20.2c38.4,0,57.7-15.4,57.7-15.4L186.6-2l-.2-.9c4.6-.5,13.9.3,13.9.3l6.3,21.2Z" fill="#9074b3"/>
              <path id="Caminho_3312" d="M59.8-2.4c-1,3.6,28.1,29.1,69.5,29.1,44.7,0,71.1-29.1,71.1-29.1l6.3,21.2s-46.4,19.1-79.6,19.1c-35.6,0-73.6-19.1-73.6-19.1Z" opacity="0.6" fill="url(#linear-gradient-13)"/>
              <path id="Caminho_3313" d="M118,26.2c52.2,5,81-27.8,81-27.8s-25.5,27.9-32.2,29.7C146.1,33.5,118,26.2,118,26.2Z" opacity="0.6" fill="url(#linear-gradient-14)"/>
              <path id="Caminho_3314" d="M178.4,11.4C165.7,17,134,26.5,104.6,20.6,76.4,15.1,64.4,2.2,63.9.5S72.5-1.9,73.7-3L72.5,4.6S87.1,20,130.2,20c38.4,0,57.7-15.4,57.7-15.4l-1.2-6.8c3.6.2,7,.3,7.7.3C195.9-1.6,190.9,5.9,178.4,11.4Z" opacity="0.6" fill="url(#linear-gradient-15)"/>
            </g>
            <path id="Caminho_3315" d="M315.4,328.4l-18.7-44.1-68.2-8.5-65.8,8-41.8-8-51,5.2-40.8,3.3L29,287l-2.7,41.5,289.1,15.2Z" fill="#9074b3"/>
          </g>
        </g>
      </g>
      <g id="Grupo_1597" data-name="Grupo 1597">
        <path id="Caminho_3317" data-name="Caminho 3317" d="M186.2,158.3c-.1,2.7-7.6,3.6-13.5,6.3a9.079,9.079,0,0,1-5.5.8H167a10.061,10.061,0,0,1-5.5-.8c-6-2.7-13.4-3.6-13.5-6.3-.2-4,.5-6.6,1.4-8.2h0c1.4-2.4,3.4-2.9,4.5-3.6,1.8-1.2,7.4-15.2,13.2-15.3h.1c5.8.1,11.4,14.1,13.2,15.3,1.1.7,3.1,1.3,4.5,3.6C185.7,151.7,186.4,154.2,186.2,158.3Z" opacity="0.56" fill="url(#linear-gradient-16)"/>
        <path id="Caminho_3318" data-name="Caminho 3318" d="M186.2,158.3c-.1,2.7-7.6,3.6-13.5,6.3a9.079,9.079,0,0,1-5.5.8H167a10.061,10.061,0,0,1-5.5-.8c-6-2.7-13.4-3.6-13.5-6.3-.2-4,.5-6.6,1.4-8.2h0c-.5,7.4.5,8.9,3.6,8.8,3.2-.2,8.5,4.9,14.1,4.9s10.6-5.3,14.8-5.3c4.3-.1,3.4-5.9,2.9-8.3C185.7,151.7,186.4,154.2,186.2,158.3Z" fill="#e37e67" opacity="0.6"/>
        <path id="Caminho_3319" data-name="Caminho 3319" d="M151.7,161.2c-.8-1.3.3-2.3,1.9-1.5a22.291,22.291,0,0,1,4.4,3.6S152.1,161.7,151.7,161.2Z" fill="#812751"/>
        <path id="Caminho_3320" data-name="Caminho 3320" d="M182.4,161.2c.8-1.3-.3-2.3-1.9-1.5a22.291,22.291,0,0,0-4.4,3.6S182.1,161.7,182.4,161.2Z" fill="#812751"/>
        <path id="Caminho_3321" data-name="Caminho 3321" d="M147.9,158.3c6.8-.5,12.6,4.9,19.1,5.4s11-7.7,19.1-5.4c0,0,.6,2.4-7,6.3-10.6,5.5-15.7,5.5-25.2-.5C147.3,160,147.9,158.3,147.9,158.3Z" fill="#aa4f3a" opacity="0.6"/>
        <path id="Caminho_3322" data-name="Caminho 3322" d="M150,149.1s2.2-1.3,5.4,1.8-1.6,8-1.6,8l3.7,1.5s.1-5.6,1.4-8c1.3-2.5,3.2-4.6,2.4-7-.9-2.4-5.2-2.2-5.9-1.1s-.4,1.5-1.6,2.2C152.7,147.2,150.8,148,150,149.1Z" fill="#e37e67" opacity="0.7"/>
        <path id="Caminho_3323" data-name="Caminho 3323" d="M184.2,149.1s-2.2-1.3-5.4,1.8,1.6,8,1.6,8l-3.7,1.5s-.1-5.6-1.4-8c-1.3-2.5-3.2-4.6-2.4-7,.9-2.4,5.2-2.2,5.9-1.1s.4,1.5,1.6,2.2S183.5,148,184.2,149.1Z" fill="#d97b5e" opacity="0.7"/>
        <path id="Caminho_3324" data-name="Caminho 3324" d="M175.7,159.3c.8-2.2-1.6-8.6-3.6-9.3a3.486,3.486,0,0,0-4.2,1.8c-.4,1-2.8,10.4-.8,10.8C169.1,163.1,174.9,161.3,175.7,159.3Z" fill="#fcbcb6" opacity="0.5"/>
        <path id="Caminho_3325" data-name="Caminho 3325" d="M175.8,157.5c-.8-1-2.2,1.6-2.1,2.3.1.8,1.8.2,2-.5S176.1,157.9,175.8,157.5Z" fill="#fff"/>
      </g>
      <g id="Grupo_1598" data-name="Grupo 1598">
        <path id="Caminho_3326" data-name="Caminho 3326" d="M153.8,199s4.8,8,12.2,8,13.7-7.9,13.7-7.9-4.2,2.5-12.9,2.5C158.2,201.5,153.8,199,153.8,199Z" fill="#e37e67" opacity="0.8"/>
        <path id="Caminho_3327" data-name="Caminho 3327" d="M141.1,186.9s10,14,26,14,26-14,26-14-8.6,1-16.3,2.3a57.011,57.011,0,0,1-21.4,0C148.4,187.8,142,187.2,141.1,186.9Z" fill="#ed7172"/>
        <path id="Caminho_3328" data-name="Caminho 3328" d="M174.8,180.8c-6.3-.7-7.1.3-8.1.3-.9,0-.5-1.1-7-.4-6.9.8-20.6,5.1-20.6,5.1s1.5,1.7,10.4,2.7a121.756,121.756,0,0,0,17.2.6,154.683,154.683,0,0,0,18-.6c8.9-1,10.4-2.7,10.4-2.7S181.7,181.6,174.8,180.8Z" fill="#db4c6b"/>
        <path id="Caminho_3329" data-name="Caminho 3329" d="M193.8,182.1a17.281,17.281,0,0,1,3.6,6.6s.9-3.9-.8-5.7S193.8,182.1,193.8,182.1Z" fill="#dd6b7c"/>
        <path id="Caminho_3330" data-name="Caminho 3330" d="M140.3,181.9a17.281,17.281,0,0,0-3.6,6.6s-.9-3.9.8-5.7S140.3,181.9,140.3,181.9Z" fill="#dd6b7c"/>
        <path id="Caminho_3331" data-name="Caminho 3331" d="M173.2,192.5c-.2.9,1.6,6.6,1.6,6.6s9-2.4,13.4-7.9C188.2,191.2,173.9,189.6,173.2,192.5Z" fill="#f59293"/>
        <path id="Caminho_3332" data-name="Caminho 3332" d="M141.1,186.9a73.311,73.311,0,0,0,7.8,1c5.5.5,21.5,1,29.3.8,3.8-.1,14.1-.8,16.8-2.8,0,0-2.7,2-8.9,2.8-19.1,2.5-24.3,1.6-32.7.7A59.128,59.128,0,0,1,141.1,186.9Z" fill="#862254"/>
        <path id="Caminho_3333" data-name="Caminho 3333" d="M139.1,183.4a15.66,15.66,0,0,0-1.9,3.4l6.5.7s-4.5-1-4.7-1.8A13.521,13.521,0,0,1,139.1,183.4Z" fill="#862254"/>
        <path id="Caminho_3334" data-name="Caminho 3334" d="M194.9,183.4a15.66,15.66,0,0,1,1.9,3.4l-6.5.7s4.5-1,4.7-1.8A13.521,13.521,0,0,0,194.9,183.4Z" fill="#862254"/>
      </g>
    </g>
    <g id="Camada_2">
      <g id="Grupo_1609" data-name="Grupo 1609">
        <g id="Grupo_1603" data-name="Grupo 1603">
          <g id="Grupo_1601" data-name="Grupo 1601">
            <g id="Grupo_1600" data-name="Grupo 1600">
              <path id="Caminho_3335" data-name="Caminho 3335" d="M189.3,128.8c.4.9,4.5,1.9,5.9,1.8,1.3-.1,16.7-2.2,24.5,0a16.649,16.649,0,0,0-3.6-9.1c-3.5-4.8-11.8-5.4-16.5-4.3C195,118.3,188.6,127.4,189.3,128.8Z" fill="url(#linear-gradient-17)"/>
              <g id="Grupo_1599" data-name="Grupo 1599" clip-path="url(#clip-path-2)">
                <circle id="Elipse_6" data-name="Elipse 6" cx="8.2" cy="8.2" r="8.2" transform="translate(195.7 114.9)" fill="#521b32"/>
                <circle id="Elipse_7" data-name="Elipse 7" cx="7.4" cy="7.4" r="7.4" transform="translate(196.5 115.7)" fill="#919b2c"/>
                <circle id="Elipse_8" data-name="Elipse 8" cx="4.6" cy="4.6" r="4.6" transform="translate(199.3 118.5)" fill="#4a161d"/>
                <path id="Caminho_3336" data-name="Caminho 3336" d="M209.9,123.8c.8.7,4.6-.7,3.9-1.4C213,121.7,209.1,123.1,209.9,123.8Z" fill="#fffbf8"/>
                <path id="Caminho_3337" data-name="Caminho 3337" d="M209.5,126.9c.1,1.6-3.6,3.6-5.7,3.5-3.4-.2-6.2-2.6-6.3-4.5s1.6-.5,3.7.9a5.094,5.094,0,0,0,6-.3C207.8,126.1,209.5,125.8,209.5,126.9Z" fill="#737b22"/>
              </g>
            </g>
            <path id="Caminho_3339" data-name="Caminho 3339" d="M218.6,125.9c.4.6,1.3-2.8.3-5.7s-12.8-6.1-20-2.7C198.9,117.5,212,114.4,218.6,125.9Z" fill="#c96a55"/>
            <path id="Caminho_3340" data-name="Caminho 3340" d="M219.7,130.6s-1.6-1.8-5.2-1.6-9.5.8-9.5.8S217,129.5,219.7,130.6Z" fill="url(#linear-gradient-18)"/>
            <path id="Caminho_3341" data-name="Caminho 3341" d="M190.1,126.3s-.5,2.5.5,3.3c0,0-1.7.2-1.7-.7A6.993,6.993,0,0,1,190.1,126.3Z" fill="#d44d6b"/>
            <path id="Caminho_3342" data-name="Caminho 3342" d="M191.3,123.1c4.4-6.3,8.6-6.8,11.8-7.2a14.03,14.03,0,0,0-5.4.4C194.1,117.7,191.3,123.1,191.3,123.1Z" fill="#da4c6a"/>
            <path id="Caminho_3343" data-name="Caminho 3343" d="M219.2,127.6s-4.3-8.6-14.2-9.4c-10-.7-15.2,8.8-15.2,8.8s5.3-12.3,16.5-10.2A16.955,16.955,0,0,1,219.2,127.6Z" fill="#373536" opacity="0.6"/>
          </g>
          <g id="Grupo_1602" data-name="Grupo 1602">
            <path id="Caminho_3344" data-name="Caminho 3344" d="M181.8,104.1a23.233,23.233,0,0,0,10.6,9.1,17.142,17.142,0,0,0,4.7-.8h0c3.3-.9,7.2-2.6,12.3-4.4,7.8-2.6,17.8-2.6,17.8-2.6-9.8-7-19-6.6-19-6.6l3.3,1.6s-2.6-.1-9.8,1.3a11.627,11.627,0,0,0-1.8.4l-.6.1c-.3.1-.6.1-.9.2-9,2-14.3,1.6-14.3,1.6l1.5,2Z" fill="#a05c0a" fill-rule="evenodd"/>
            <path id="Caminho_3345" data-name="Caminho 3345" d="M197.1,112.5c3.3-.9,7.2-2.6,12.3-4.4,7.8-2.6,17.8-2.6,17.8-2.6-9.8-7-19-6.6-19-6.6l3.3,1.6c8.1.8,12,3.8,12,3.8a44.579,44.579,0,0,1-8.7,0c-4.1-.5-13-2.5-13-2.5l-1.8.4-.6.1s12.1,2.7,11.1,3.2C206.1,107.5,197.6,112.2,197.1,112.5Z" fill="#7b4f3f" fill-rule="evenodd" opacity="0.6"/>
          </g>
        </g>
        <g id="Grupo_1608" data-name="Grupo 1608">
          <g id="Grupo_1606" data-name="Grupo 1606">
            <g id="Grupo_1605" data-name="Grupo 1605">
              <path id="Caminho_3346" data-name="Caminho 3346" d="M144.8,128.8c-.4.9-4.5,1.9-5.9,1.8-1.3-.1-16.7-2.2-24.5,0a16.649,16.649,0,0,1,3.6-9.1c3.5-4.8,11.8-5.4,16.5-4.3C139.1,118.3,145.5,127.4,144.8,128.8Z" fill="url(#linear-gradient-19)"/>
              <g id="Grupo_1604" data-name="Grupo 1604" clip-path="url(#clip-path-3)">
                <circle id="Elipse_9" data-name="Elipse 9" cx="8.2" cy="8.2" r="8.2" transform="translate(122 114.9)" fill="#521b32"/>
                <circle id="Elipse_10" data-name="Elipse 10" cx="7.4" cy="7.4" r="7.4" transform="translate(122.8 115.7)" fill="#919b2c"/>
                <circle id="Elipse_11" data-name="Elipse 11" cx="4.6" cy="4.6" r="4.6" transform="translate(125.6 118.5)" fill="#4a161d"/>
                <path id="Caminho_3347" data-name="Caminho 3347" d="M124.2,123.8c-.8.7-4.6-.7-3.9-1.4C121.1,121.7,125,123.1,124.2,123.8Z" fill="#fffbf8"/>
                <path id="Caminho_3348" data-name="Caminho 3348" d="M124.6,126.9c-.1,1.6,3.6,3.6,5.7,3.5,3.4-.2,6.2-2.6,6.3-4.5s-1.6-.5-3.7.9a5.094,5.094,0,0,1-6-.3C126.3,126.1,124.6,125.8,124.6,126.9Z" fill="#737b22"/>
              </g>
            </g>
            <path id="Caminho_3350" data-name="Caminho 3350" d="M115.5,125.9c-.4.6-1.3-2.8-.3-5.7s12.8-6.1,20-2.7C135.2,117.5,122.1,114.4,115.5,125.9Z" fill="#c96a55"/>
            <path id="Caminho_3351" data-name="Caminho 3351" d="M114.4,130.6s1.6-1.8,5.2-1.6,9.5.8,9.5.8S117.1,129.5,114.4,130.6Z" fill="url(#linear-gradient-20)"/>
            <path id="Caminho_3352" data-name="Caminho 3352" d="M144,126.3s.5,2.5-.5,3.3c0,0,1.7.2,1.7-.7A6.993,6.993,0,0,0,144,126.3Z" fill="#d44d6b"/>
            <path id="Caminho_3353" data-name="Caminho 3353" d="M142.8,123.1c-4.4-6.3-8.6-6.8-11.8-7.2a14.03,14.03,0,0,1,5.4.4C140,117.7,142.8,123.1,142.8,123.1Z" fill="#da4c6a"/>
            <path id="Caminho_3354" data-name="Caminho 3354" d="M114.9,127.6s4.3-8.6,14.2-9.4c10-.7,15.2,8.8,15.2,8.8s-5.3-12.3-16.5-10.2A16.955,16.955,0,0,0,114.9,127.6Z" fill="#373536" opacity="0.6"/>
          </g>
          <g id="Grupo_1607" data-name="Grupo 1607">
            <path id="Caminho_3355" data-name="Caminho 3355" d="M152.3,104.1a23.233,23.233,0,0,1-10.6,9.1,17.142,17.142,0,0,1-4.7-.8h0c-3.3-.9-7.2-2.6-12.3-4.4-7.8-2.6-17.8-2.6-17.8-2.6,9.8-7,19-6.6,19-6.6l-3.3,1.6s2.6-.1,9.8,1.3a11.627,11.627,0,0,1,1.8.4l.6.1c.3.1.6.1.9.2,9,2,14.3,1.6,14.3,1.6l-1.5,2Z" fill="#a05c0a" fill-rule="evenodd"/>
            <path id="Caminho_3356" data-name="Caminho 3356" d="M137,112.5c-3.3-.9-7.2-2.6-12.3-4.4-7.8-2.6-17.8-2.6-17.8-2.6,9.8-7,19-6.6,19-6.6l-3.3,1.6c-8.1.8-12,3.8-12,3.8a44.579,44.579,0,0,0,8.7,0c4.1-.5,13-2.5,13-2.5l1.8.4.6.1s-12.1,2.7-11.1,3.2C128,107.5,136.5,112.2,137,112.5Z" fill="#7b4f3f" fill-rule="evenodd" opacity="0.6"/>
          </g>
        </g>
      </g>
    </g>
  </g>
</svg>
