<svg id="ios" xmlns="http://www.w3.org/2000/svg" width="120.05" height="41.064" viewBox="0 0 120.05 41.064">
  <path id="Caminho_3359" data-name="Caminho 3359" d="M27.9,211.851a9.274,9.274,0,0,1,4.439-7.812,9.594,9.594,0,0,0-7.51-4.072c-3.2-.327-6.237,1.882-7.862,1.882s-4.126-1.838-6.777-1.783a10.055,10.055,0,0,0-8.5,5.147C-1.928,211.484.767,220.8,4.3,225.895c1.729,2.492,3.78,5.3,6.484,5.2,2.606-.1,3.587-1.684,6.727-1.684s4.027,1.684,6.777,1.635c2.8-.054,4.572-2.546,6.286-5.048a22.892,22.892,0,0,0,2.838-5.845,9.058,9.058,0,0,1-5.514-8.3" transform="translate(0.027 -190.029)"/>
  <path id="Caminho_3360" data-name="Caminho 3360" d="M341.673,6.559A9.045,9.045,0,0,0,343.813,0a9.2,9.2,0,0,0-6.048,3.116,8.578,8.578,0,0,0-2.175,6.351,7.62,7.62,0,0,0,6.083-2.908m23.283,20.37-2.378,7.208h-3.056L367.3,11.23h3.567l7.812,22.906h-3.16l-2.447-7.208Zm7.51-2.313-2.239-6.593c-.51-1.5-.847-2.853-1.189-4.181h-.064c-.342,1.357-.713,2.749-1.154,4.146L365.58,24.61ZM381,23.055c0-2.105-.064-3.809-.139-5.37h2.685l.139,2.824h.064a6.465,6.465,0,0,1,5.845-3.2c3.978,0,6.965,3.364,6.965,8.362,0,5.915-3.6,8.833-7.475,8.833a5.769,5.769,0,0,1-5.063-2.581h-.064v8.937H381Zm2.952,4.384a6.2,6.2,0,0,0,.139,1.224,4.619,4.619,0,0,0,4.488,3.5c3.16,0,5-2.581,5-6.356,0-3.3-1.734-6.113-4.894-6.113a4.784,4.784,0,0,0-4.523,3.705,4.756,4.756,0,0,0-.2,1.224l0,2.814Zm15.7-4.384c0-2.105-.064-3.809-.139-5.37H402.2l.139,2.824h.064a6.465,6.465,0,0,1,5.845-3.2c3.978,0,6.965,3.364,6.965,8.362,0,5.915-3.6,8.833-7.475,8.833a5.769,5.769,0,0,1-5.063-2.581h-.064v8.937h-2.957Zm2.957,4.384a6.2,6.2,0,0,0,.139,1.224,4.619,4.619,0,0,0,4.488,3.5c3.161,0,5-2.581,5-6.356,0-3.3-1.734-6.113-4.894-6.113a4.784,4.784,0,0,0-4.523,3.705,4.757,4.757,0,0,0-.2,1.224l0,2.814Zm15.7-17.432H421.3V34.131h-2.992Zm9.006,16.446c.064,4.042,2.65,5.712,5.637,5.712a10.813,10.813,0,0,0,4.552-.847l.51,2.14a13.3,13.3,0,0,1-5.469,1.02c-5.063,0-8.089-3.329-8.089-8.293s2.923-8.872,7.713-8.872c5.37,0,6.8,4.721,6.8,7.748a10.141,10.141,0,0,1-.1,1.392H427.313Zm8.768-2.14c.035-1.9-.783-4.86-4.146-4.86-3.027,0-4.349,2.789-4.587,4.86Z" transform="translate(-318.914)"/>
</svg>
