<svg id="mysql" xmlns="http://www.w3.org/2000/svg" width="149.854" height="77.388" viewBox="0 0 149.854 77.388">
  <path id="Caminho_3235" data-name="Caminho 3235" d="M0,87.813H4.937V68.325l7.643,17c.9,2.049,2.137,2.785,4.557,2.785s3.607-.728,4.51-2.785l7.643-17v19.5h4.938V68.357A2.967,2.967,0,0,0,31.9,65.066c-3.75-1.171-6.266-.158-7.4,2.374L17,84.212,9.732,67.432c-1.092-2.532-3.655-3.544-7.4-2.374A2.967,2.967,0,0,0,0,68.35ZM38.332,71.945h4.935V82.687c-.046.584.187,1.954,2.892,2,1.38.022,10.649,0,10.736,0V71.892h4.946c.022,0-.005,17.44,0,17.514.027,4.3-5.337,5.235-7.809,5.308H38.439V91.392H54.055c3.177-.337,2.8-1.915,2.8-2.447v-1.3H46.365c-4.882-.044-7.99-2.175-8.029-4.627,0-.22.105-10.972,0-11.078Z" transform="translate(0 -17.326)" fill="#00618a"/>
  <path id="Caminho_3236" data-name="Caminho 3236" d="M89.716,87.977H103.91a10.949,10.949,0,0,0,4.559-.95c2.137-.98,3.181-2.31,3.181-4.051V79.369c0-1.425-1.187-2.753-3.512-3.64A12.125,12.125,0,0,0,103.912,75H97.93c-1.993,0-2.943-.6-3.18-1.93a1.434,1.434,0,0,1-.048-.443V70.381a1.316,1.316,0,0,1,.048-.412c.237-1.013.76-1.3,2.516-1.463.143,0,.332-.032.476-.032h14.1V65.183H97.979a13.317,13.317,0,0,0-3.988.411c-2.946.918-4.228,2.382-4.228,4.913v2.88c0,2.216,2.517,4.114,6.741,4.557.476.031.95.063,1.424.063h5.127a2.6,2.6,0,0,1,.522.032c1.566.127,2.232.411,2.706.98a1.157,1.157,0,0,1,.38.878v2.88a1.646,1.646,0,0,1-.712,1.171,3.5,3.5,0,0,1-2.089.7c-.19,0-.332.031-.522.031H89.716v3.291Zm52.73-5.728c0,3.386,2.516,5.285,7.6,5.665q.711.055,1.424.063H164.33V84.685H151.37c-2.9,0-3.988-.728-3.988-2.469V65.19h-4.937V82.247ZM114.8,82.42V70.687c0-2.981,2.093-4.789,6.231-5.36a9.466,9.466,0,0,1,1.332-.1h9.371a10.151,10.151,0,0,1,1.38.1c4.139.571,6.231,2.378,6.231,5.36V82.42c0,2.418-.889,3.713-2.938,4.556l4.863,4.39h-5.732L131.6,87.815l-3.961.251h-5.28a10.943,10.943,0,0,1-2.9-.413c-3.146-.856-4.661-2.505-4.661-5.233Zm5.329-.293a2.179,2.179,0,0,0,.1.508c.293,1.364,1.57,2.125,3.512,2.125h4.485l-4.12-3.719h5.732l3.585,3.244a2.313,2.313,0,0,0,1.244-1.586,1.616,1.616,0,0,0,.048-.476V70.973a1.5,1.5,0,0,0-.048-.444c-.293-1.268-1.57-2-3.473-2h-7.446c-2.2,0-3.615.951-3.615,2.442V82.136Z" transform="translate(-24.069 -17.49)" fill="#e48e00"/>
  <g id="Grupo_1559" data-name="Grupo 1559" transform="translate(93.372 0)">
    <path id="Caminho_3237" data-name="Caminho 3237" d="M178.84,42.243a17.377,17.377,0,0,0-7.335,1.035c-.563.238-1.461.244-1.553.95.31.324.359.809.6,1.207a9.522,9.522,0,0,0,1.985,2.33c.779.588,1.581,1.217,2.417,1.727,1.485.906,3.143,1.423,4.573,2.33.843.534,1.68,1.207,2.5,1.812.406.3.68.762,1.207.949V54.5c-.278-.353-.349-.839-.6-1.207l-1.122-1.122a18.27,18.27,0,0,0-3.97-3.8c-1.18-.847-3.822-1.992-4.315-3.366l-.086-.086a19.228,19.228,0,0,0,2.59-.6c1.3-.348,2.457-.258,3.8-.6l1.812-.518v-.345c-.678-.7-1.16-1.615-1.9-2.243a55.442,55.442,0,0,0-6.212-4.661c-1.2-.761-2.693-1.254-3.97-1.9-.43-.217-1.184-.329-1.467-.691a18.562,18.562,0,0,1-1.553-2.927c-1.083-2.085-2.147-4.364-3.107-6.558a35.55,35.55,0,0,0-1.9-4.315C157.321,13.11,153.1,9.222,146.569,5.4a17.6,17.6,0,0,0-4.833-1.553l-2.848-.173a15.093,15.093,0,0,1-1.727-1.3c-2.164-1.368-7.716-4.341-9.319-.439-1.012,2.468,1.512,4.876,2.416,6.127a18.5,18.5,0,0,1,1.9,2.848c.3.648.35,1.3.6,1.985a46.19,46.19,0,0,0,1.984,5.091,17.959,17.959,0,0,0,1.381,2.33c.318.434.863.625.949,1.3a10.568,10.568,0,0,0-.863,2.848c-1.349,4.253-.84,9.538,1.122,12.686.6.966,2.02,3.038,3.97,2.243,1.7-.7,1.317-2.846,1.812-4.746.11-.432.042-.746.259-1.035V33.7l1.553,3.106a21.153,21.153,0,0,0,4.919,5.093c.9.677,1.61,1.848,2.761,2.243v-.086h-.086c-.225-.351-.576-.5-.863-.776a19.813,19.813,0,0,1-1.985-2.243,52.386,52.386,0,0,1-4.228-6.9c-.6-1.161-1.13-2.442-1.639-3.624-.2-.456-.194-1.144-.6-1.381a17.238,17.238,0,0,0-1.812,2.589,22.135,22.135,0,0,0-1.035,5.7c-.151.054-.084.017-.173.086-1.2-.29-1.624-1.527-2.071-2.589a16.317,16.317,0,0,1-.345-10.1c.256-.8,1.42-3.318.949-4.056-.225-.737-.966-1.171-1.381-1.727a13.6,13.6,0,0,1-1.381-2.416c-.925-2.093-1.357-4.442-2.33-6.558a18.757,18.757,0,0,0-1.9-2.927A17.275,17.275,0,0,1,129.655,4.2c-.2-.428-.465-1.112-.173-1.553A.681.681,0,0,1,130,2.131c.5-.386,1.9.128,2.416.345a21.1,21.1,0,0,1,3.711,1.9c.563.366,1.132,1.095,1.812,1.3h.776c1.215.28,2.576.088,3.71.432a22.462,22.462,0,0,1,5.437,2.589,33.624,33.624,0,0,1,11.822,12.951c.448.858.641,1.679,1.035,2.589.8,1.829,1.8,3.727,2.589,5.522a25.768,25.768,0,0,0,2.675,5.091c.587.783,2.854,1.2,3.883,1.639a22.886,22.886,0,0,1,2.589,1.035c1.306.788,2.572,1.727,3.8,2.59.612.432,2.5,1.378,2.589,2.157Z" transform="translate(-127.607 -0.003)" fill="#00618a"/>
    <path id="Caminho_3238" data-name="Caminho 3238" d="M144.34,12.8a6.14,6.14,0,0,0-1.553.173v.086h.086a11.792,11.792,0,0,0,1.207,1.553l.863,1.812.086-.086a2.105,2.105,0,0,0,.776-1.9c-.214-.225-.246-.508-.432-.777-.247-.359-.732-.562-1.035-.863Z" transform="translate(-131.68 -3.435)" fill="#00618a" fill-rule="evenodd"/>
  </g>
  <path id="Caminho_3239" data-name="Caminho 3239" d="M194.855,90.374a3.638,3.638,0,1,0,3.638-3.638A3.589,3.589,0,0,0,194.855,90.374Zm6.461,0a2.825,2.825,0,1,1-2.824-2.882A2.815,2.815,0,0,1,201.316,90.374Zm-1.844,2.077h.814l-1.193-1.823c.64-.068,1.125-.379,1.125-1.136,0-.844-.534-1.193-1.561-1.193h-1.621v4.152h.7V90.657h.65l1.087,1.795Zm-1.737-2.378V88.88h.8c.417,0,.922.078.922.563,0,.582-.456.631-.98.631h-.746Z" transform="translate(-52.277 -23.272)" fill="#e48e00" fill-rule="evenodd"/>
</svg>
