<svg xmlns="http://www.w3.org/2000/svg" width="84.771" height="115.217" viewBox="0 0 84.771 115.217">
  <g id="react" transform="translate(0.831 0.984)">
    <g id="Grupo_1554" data-name="Grupo 1554" transform="translate(0 0)">
      <ellipse id="Elipse_2" data-name="Elipse 2" cx="7.752" cy="7.752" rx="7.752" ry="7.752" transform="translate(33.803 28.938)" fill="#00d8ff"/>
      <g id="Grupo_1553" data-name="Grupo 1553" transform="translate(0 0)">
        <path id="Caminho_3218" data-name="Caminho 3218" d="M41.6,9.4c10.409,0,20.078,1.494,27.369,4,8.784,3.024,14.185,7.608,14.185,11.759,0,4.325-5.724,9.2-15.157,12.32-7.132,2.363-16.516,3.6-26.4,3.6-10.13,0-19.723-1.158-26.935-3.622C5.539,34.334.043,29.4.043,25.158c0-4.117,5.157-8.665,13.817-11.685C21.178,10.922,31.086,9.4,41.6,9.4Z" transform="translate(-0.043 11.532)" fill="none" stroke="#00d8ff" stroke-width="1.663" fill-rule="evenodd"/>
        <path id="Caminho_3219" data-name="Caminho 3219" d="M18.622,28.868c5.2-9.017,11.324-16.647,17.141-21.709C42.771,1.061,49.44-1.327,53.035.746c3.747,2.161,5.106,9.552,3.1,19.285C54.622,27.389,51,36.135,46.065,44.694,41,53.47,35.209,61.2,29.471,66.216c-7.26,6.346-14.279,8.643-17.954,6.523-3.567-2.055-4.93-8.8-3.22-17.807,1.446-7.614,5.074-16.959,10.323-26.064Z" transform="translate(9.212 -0.014)" fill="none" stroke="#00d8ff" stroke-width="1.663" fill-rule="evenodd"/>
        <path id="Caminho_3220" data-name="Caminho 3220" d="M18.623,44.671C13.408,35.664,9.858,26.546,8.376,18.979,6.592,9.862,7.853,2.891,11.446.811c3.743-2.167,10.826.347,18.256,6.945C35.32,12.744,41.089,20.248,46.04,28.8c5.075,8.767,8.879,17.649,10.359,25.124,1.872,9.459.357,16.687-3.315,18.813C49.521,74.8,43,72.615,36.048,66.632c-5.874-5.055-12.159-12.865-17.425-21.961Z" transform="translate(9.223 0.033)" fill="none" stroke="#00d8ff" stroke-width="1.663" fill-rule="evenodd"/>
      </g>
    </g>
    <path id="Caminho_3221" data-name="Caminho 3221" d="M70.128,46.444l-6.309-9.532A6.462,6.462,0,0,0,69.881,30.1c0-4.295-3.048-7.044-7.323-7.044H53.168v23.37h2.909V37.14h4.661l5.957,9.286ZM62.209,34.6H56.078V25.666h6.131a4.473,4.473,0,1,1,0,8.938ZM80.956,46.863a9.2,9.2,0,0,0,6.728-2.592l-1.262-1.718A7.4,7.4,0,0,1,81.2,44.69a5.964,5.964,0,0,1-6.1-5.85H88.8v-.666c0-5.08-3.014-9.075-8.131-9.075-4.835,0-8.338,3.96-8.338,8.865,0,5.292,3.609,8.886,8.619,8.886Zm5.258-9.952H75.106c.141-2.592,1.925-5.643,5.536-5.643A5.486,5.486,0,0,1,86.213,36.911Zm20.044,9.532V34.809c0-4.1-2.977-5.712-6.552-5.712a8.854,8.854,0,0,0-6.762,2.8l1.226,1.822a6.725,6.725,0,0,1,5.186-2.347c2.453,0,4.276,1.3,4.276,3.574V38a7.076,7.076,0,0,0-5.607-2.313c-2.873,0-5.924,1.788-5.924,5.571,0,3.679,3.048,5.607,5.924,5.607a7.321,7.321,0,0,0,5.607-2.347v1.925ZM98.971,44.97c-2.453,0-4.17-1.54-4.17-3.679,0-2.173,1.718-3.714,4.17-3.714a5.668,5.668,0,0,1,4.661,2.1v3.189a5.67,5.67,0,0,1-4.661,2.1Zm19.993,1.893a7.248,7.248,0,0,0,6.2-2.943l-1.752-1.611a5.1,5.1,0,0,1-4.295,2.207c-3.609,0-5.85-2.8-5.85-6.552s2.242-6.516,5.85-6.516a4.978,4.978,0,0,1,4.295,2.207l1.752-1.611a7.242,7.242,0,0,0-6.2-2.943c-5.046,0-8.445,3.855-8.445,8.865,0,5.046,3.4,8.886,8.445,8.886Zm14.158,0a4.307,4.307,0,0,0,3.154-1.086l-.77-1.962a2.512,2.512,0,0,1-1.788.7c-1.155,0-1.718-.911-1.718-2.173V31.831h3.436V29.519H132V24.894h-2.629v4.625h-2.8v2.313h2.8V42.906c0,2.524,1.262,3.96,3.75,3.96Z" transform="translate(-53.168 67.367)" fill="#00d8ff" fill-rule="evenodd"/>
  </g>
</svg>
