<svg xmlns="http://www.w3.org/2000/svg" width="92.985" height="115.014" viewBox="0 0 92.985 115.014">
  <g id="react_native" transform="translate(0.831 1)">
    <g id="Grupo_1554" data-name="Grupo 1554">
      <ellipse id="Elipse_2" data-name="Elipse 2" cx="8.519" cy="8.519" rx="8.519" ry="8.519" transform="translate(37.143 31.798)" fill="#00d8ff"/>
      <g id="Grupo_1553" data-name="Grupo 1553" transform="translate(0 0)">
        <path id="Caminho_3218" data-name="Caminho 3218" d="M45.7,9.4c11.437,0,22.062,1.641,30.073,4.4,9.652,3.323,15.587,8.36,15.587,12.921,0,4.753-6.29,10.1-16.655,13.538-7.836,2.6-18.149,3.952-29.006,3.952-11.131,0-21.672-1.272-29.6-3.98C6.082,36.8.043,31.379.043,26.716c0-4.524,5.666-9.522,15.183-12.84C23.267,11.073,34.154,9.4,45.7,9.4Z" transform="translate(-0.043 13.6)" fill="none" stroke="#00d8ff" stroke-width="1.663" fill-rule="evenodd"/>
        <path id="Caminho_3219" data-name="Caminho 3219" d="M19.715,31.72C25.429,21.812,32.158,13.428,38.55,7.866c7.7-6.7,15.029-9.326,18.98-7.048,4.117,2.374,5.611,10.5,3.407,21.191-1.664,8.086-5.643,17.7-11.067,27.1-5.561,9.643-11.929,18.138-18.233,23.649-7.977,6.974-15.69,9.5-19.729,7.168C7.989,77.668,6.49,70.262,8.37,60.36c1.589-8.366,5.575-18.635,11.343-28.64Z" transform="translate(10.869 -0.014)" fill="none" stroke="#00d8ff" stroke-width="1.663" fill-rule="evenodd"/>
        <path id="Caminho_3220" data-name="Caminho 3220" d="M19.715,49.081c-5.73-9.9-9.631-19.916-11.26-28.231C6.5,10.831,7.881,3.171,11.828.887c4.113-2.381,11.9.381,20.061,7.631C38.062,14,44.4,22.244,49.841,31.64c5.577,9.633,9.757,19.393,11.383,27.607,2.058,10.394.392,18.336-3.643,20.672-3.915,2.267-11.08-.133-18.719-6.707C32.407,67.658,25.5,59.075,19.715,49.08Z" transform="translate(10.884 0.041)" fill="none" stroke="#00d8ff" stroke-width="1.663" fill-rule="evenodd"/>
      </g>
    </g>
    <path id="Caminho_3223" data-name="Caminho 3223" d="M674.421,1121.325h-2.77v4.771h-1.563V1114.3h3.9a4.6,4.6,0,0,1,3.062.907,3.257,3.257,0,0,1,1.077,2.64,3.161,3.161,0,0,1-.6,1.92,3.527,3.527,0,0,1-1.652,1.223l2.77,5.005v.1h-1.669Zm-2.77-1.271h2.389a2.683,2.683,0,0,0,1.839-.6,2.02,2.02,0,0,0,.688-1.6,2.126,2.126,0,0,0-.656-1.677,2.748,2.748,0,0,0-1.879-.591h-2.381Zm12.069,6.2a3.836,3.836,0,0,1-2.9-1.166,4.359,4.359,0,0,1-1.118-3.135v-.276a5.269,5.269,0,0,1,.494-2.324,3.886,3.886,0,0,1,1.393-1.6,3.5,3.5,0,0,1,1.944-.583,3.282,3.282,0,0,1,2.657,1.126,4.874,4.874,0,0,1,.948,3.224v.624H681.2a3.143,3.143,0,0,0,.753,2.1,2.4,2.4,0,0,0,1.847.794,2.609,2.609,0,0,0,1.344-.324,3.377,3.377,0,0,0,.964-.859l.915.713A3.681,3.681,0,0,1,683.72,1126.258Zm-.187-7.857a1.993,1.993,0,0,0-1.523.664,3.188,3.188,0,0,0-.761,1.847h4.39v-.113a2.838,2.838,0,0,0-.615-1.766A1.878,1.878,0,0,0,683.533,1118.4Zm10.756,7.695a3.13,3.13,0,0,1-.211-.924,3.344,3.344,0,0,1-2.495,1.086,3.12,3.12,0,0,1-2.13-.729,2.39,2.39,0,0,1-.826-1.863,2.471,2.471,0,0,1,1.037-2.122,4.905,4.905,0,0,1,2.932-.761h1.458v-.688a1.67,1.67,0,0,0-.47-1.247,1.879,1.879,0,0,0-1.385-.47,2.183,2.183,0,0,0-1.344.4,1.193,1.193,0,0,0-.543.98h-1.506a2.064,2.064,0,0,1,.462-1.264,3.2,3.2,0,0,1,1.264-.972,4.282,4.282,0,0,1,1.757-.356,3.45,3.45,0,0,1,2.373.762,2.719,2.719,0,0,1,.891,2.081v4.034a4.928,4.928,0,0,0,.308,1.919v.13Zm-2.487-1.142a2.633,2.633,0,0,0,1.336-.365,2.209,2.209,0,0,0,.915-.948v-1.8H692.88q-2.754,0-2.754,1.611a1.365,1.365,0,0,0,.47,1.1A1.807,1.807,0,0,0,691.8,1124.954Zm9.614.081a2.158,2.158,0,0,0,1.4-.486,1.709,1.709,0,0,0,.664-1.215H704.9a2.72,2.72,0,0,1-.519,1.434,3.4,3.4,0,0,1-1.28,1.085,3.9,3.9,0,0,1-4.536-.786,4.788,4.788,0,0,1-1.053-3.273v-.251a5.273,5.273,0,0,1,.47-2.276,3.585,3.585,0,0,1,1.345-1.547,3.848,3.848,0,0,1,2.081-.551,3.5,3.5,0,0,1,2.446.883,3.15,3.15,0,0,1,1.045,2.292h-1.418a2.042,2.042,0,0,0-.648-1.393,1.981,1.981,0,0,0-1.426-.551,2.1,2.1,0,0,0-1.774.826,3.862,3.862,0,0,0-.624,2.373v.283a3.785,3.785,0,0,0,.624,2.332,2.107,2.107,0,0,0,1.782.818Zm7.2-9.825v2.122h1.636v1.158h-1.636v5.434a1.231,1.231,0,0,0,.219.794.929.929,0,0,0,.745.26,3.625,3.625,0,0,0,.712-.1v1.215a4.345,4.345,0,0,1-1.15.162,1.867,1.867,0,0,1-1.515-.608,2.611,2.611,0,0,1-.51-1.725v-5.434h-1.6v-1.158h1.6v-2.122Zm16.807,10.886h-1.564l-5.937-9.088v9.088h-1.563V1114.3h1.563l5.953,9.128V1114.3h1.547Zm7.938,0a3.132,3.132,0,0,1-.211-.924,3.344,3.344,0,0,1-2.495,1.086,3.118,3.118,0,0,1-2.13-.729,2.389,2.389,0,0,1-.826-1.863,2.47,2.47,0,0,1,1.037-2.122,4.9,4.9,0,0,1,2.932-.761h1.458v-.688a1.669,1.669,0,0,0-.47-1.247,1.877,1.877,0,0,0-1.385-.47,2.183,2.183,0,0,0-1.344.4,1.193,1.193,0,0,0-.543.98h-1.506a2.065,2.065,0,0,1,.461-1.264,3.2,3.2,0,0,1,1.264-.972,4.282,4.282,0,0,1,1.757-.356,3.451,3.451,0,0,1,2.373.762,2.719,2.719,0,0,1,.891,2.081v4.034a4.927,4.927,0,0,0,.308,1.919v.13Zm-2.487-1.142a2.633,2.633,0,0,0,1.337-.365,2.208,2.208,0,0,0,.915-.948v-1.8h-1.175q-2.754,0-2.754,1.611a1.365,1.365,0,0,0,.47,1.1A1.807,1.807,0,0,0,730.875,1124.954Zm8.132-9.744v2.122h1.636v1.158h-1.636v5.434a1.231,1.231,0,0,0,.219.794.929.929,0,0,0,.745.26,3.633,3.633,0,0,0,.713-.1v1.215a4.351,4.351,0,0,1-1.15.162,1.867,1.867,0,0,1-1.515-.608,2.611,2.611,0,0,1-.51-1.725v-5.434h-1.6v-1.158h1.6v-2.122Zm5.022,10.886h-1.5v-8.764h1.5Zm-1.62-11.088a.9.9,0,0,1,.219-.616,1,1,0,0,1,1.328,0,.886.886,0,0,1,.227.616.931.931,0,0,1-1.555.608A.875.875,0,0,1,742.409,1115.007Zm6.917,9.056,2.17-6.731h1.531l-3.143,8.764h-1.142l-3.175-8.764H747.1Zm8.666,2.195a3.836,3.836,0,0,1-2.9-1.166,4.359,4.359,0,0,1-1.118-3.135v-.276a5.27,5.27,0,0,1,.494-2.324,3.883,3.883,0,0,1,1.393-1.6,3.5,3.5,0,0,1,1.944-.583,3.283,3.283,0,0,1,2.657,1.126,4.877,4.877,0,0,1,.948,3.224v.624h-5.937a3.142,3.142,0,0,0,.753,2.1,2.4,2.4,0,0,0,1.846.794,2.61,2.61,0,0,0,1.345-.324,3.382,3.382,0,0,0,.964-.859l.915.713A3.681,3.681,0,0,1,757.992,1126.258Zm-.186-7.857a1.993,1.993,0,0,0-1.522.664,3.186,3.186,0,0,0-.761,1.847h4.39v-.113a2.838,2.838,0,0,0-.615-1.766A1.877,1.877,0,0,0,757.806,1118.4Z" transform="translate(-670.088 -1012.243)" fill="#00d8ff"/>
  </g>
</svg>
