<svg xmlns="http://www.w3.org/2000/svg" width="98" height="115.526" viewBox="0 0 98 115.526">
  <g id="reative_js" transform="translate(-0.491 0.341)">
    <g id="Grupo_1554" data-name="Grupo 1554" transform="translate(4.796 33.394)">
      <ellipse id="Elipse_2" data-name="Elipse 2" cx="8.519" cy="8.519" rx="8.519" ry="8.519" transform="translate(37.143 31.798)" fill="#00d8ff"/>
      <g id="Grupo_1553" data-name="Grupo 1553" transform="translate(0 0)">
        <path id="Caminho_3218" data-name="Caminho 3218" d="M45.7,9.4c11.437,0,22.062,1.641,30.073,4.4,9.652,3.323,15.587,8.36,15.587,12.921,0,4.753-6.29,10.1-16.655,13.538-7.836,2.6-18.149,3.952-29.006,3.952-11.131,0-21.672-1.272-29.6-3.98C6.082,36.8.043,31.379.043,26.716c0-4.524,5.666-9.522,15.183-12.84C23.267,11.073,34.154,9.4,45.7,9.4Z" transform="translate(-0.043 13.6)" fill="none" stroke="#00d8ff" stroke-width="1.663" fill-rule="evenodd"/>
        <path id="Caminho_3219" data-name="Caminho 3219" d="M19.715,31.72C25.429,21.812,32.158,13.428,38.55,7.866c7.7-6.7,15.029-9.326,18.98-7.048,4.117,2.374,5.611,10.5,3.407,21.191-1.664,8.086-5.643,17.7-11.067,27.1-5.561,9.643-11.929,18.138-18.233,23.649-7.977,6.974-15.69,9.5-19.729,7.168C7.989,77.668,6.49,70.262,8.37,60.36c1.589-8.366,5.575-18.635,11.343-28.64Z" transform="translate(10.869 -0.014)" fill="none" stroke="#00d8ff" stroke-width="1.663" fill-rule="evenodd"/>
        <path id="Caminho_3220" data-name="Caminho 3220" d="M19.715,49.081c-5.73-9.9-9.631-19.916-11.26-28.231C6.5,10.831,7.881,3.171,11.828.887c4.113-2.381,11.9.381,20.061,7.631C38.062,14,44.4,22.244,49.841,31.64c5.577,9.633,9.757,19.393,11.383,27.607,2.058,10.394.392,18.336-3.643,20.672-3.915,2.267-11.08-.133-18.719-6.707C32.407,67.658,25.5,59.075,19.715,49.08Z" transform="translate(10.884 0.041)" fill="none" stroke="#00d8ff" stroke-width="1.663" fill-rule="evenodd"/>
      </g>
    </g>
    <text id="React_JS" data-name="React JS" transform="translate(49.491 21.659)" fill="#202020" font-size="24" font-family="ArialMT, Arial"><tspan x="-48.686" y="0">React JS</tspan></text>
  </g>
</svg>
