<svg xmlns="http://www.w3.org/2000/svg" width="130.164" height="107.341" viewBox="0 0 130.164 107.341">
  <g id="typescript" transform="translate(-656.918 -2023)">
    <g id="ts-lettermark-white" transform="translate(590.004 2079.914)">
      <path id="Caminho_3362" data-name="Caminho 3362" d="M330.55,97.856V96.1a9.015,9.015,0,0,0,4.869,1.522,6.289,6.289,0,0,0,3.98-1.08,3.642,3.642,0,0,0,1.358-3.021,3.93,3.93,0,0,0-.913-2.726,17.2,17.2,0,0,0-3.742-2.648l-.215-.124a14.062,14.062,0,0,1-4.308-3.3,5.316,5.316,0,0,1-.905-3.068,5.178,5.178,0,0,1,1.842-4.008A7.1,7.1,0,0,1,337.433,76a12.534,12.534,0,0,1,4,.668v1.615a10.107,10.107,0,0,0-4.2-.885,5.35,5.35,0,0,0-3.613,1.149,3.686,3.686,0,0,0-1.334,2.92,3.9,3.9,0,0,0,.913,2.718,18.023,18.023,0,0,0,3.941,2.75,14.072,14.072,0,0,1,4.175,3.145,5.1,5.1,0,0,1,1.038,3.161,5.373,5.373,0,0,1-1.787,4.179,7.266,7.266,0,0,1-5.049,1.616,11.7,11.7,0,0,1-2.661-.357A8.65,8.65,0,0,1,330.55,97.856ZM275.081,79.514h6.4V76.375H265v3.139h6.384V98.662h3.7Zm12.3,21.7,7.211-18.468h-3.652l-4,11.6q-.142.533-.223.868l-.058.251h-.078q-.125-.533-.2-.832l-.082-.318L282.5,82.742h-4.011l6.352,15.887-1.077,2.612a3.222,3.222,0,0,1-3.028,1.99,5.08,5.08,0,0,1-1.561-.28v3a7.591,7.591,0,0,0,1.9.2Q285.133,106.153,287.381,101.21ZM300.518,96.3h-.062v9.663h-3.617V82.741h3.617v2.8h.062a5.931,5.931,0,0,1,5.426-3.169,5.725,5.725,0,0,1,4.74,2.128,8.9,8.9,0,0,1,1.7,5.717,9.887,9.887,0,0,1-1.918,6.37,6.352,6.352,0,0,1-5.239,2.392,5.235,5.235,0,0,1-4.709-2.672Zm-.121-4.217V90.123a5.011,5.011,0,0,1,1.176-3.4,3.907,3.907,0,0,1,3.108-1.36,3.518,3.518,0,0,1,2.89,1.321,5.663,5.663,0,0,1,1.067,3.654,7.183,7.183,0,0,1-1.145,4.334,3.952,3.952,0,0,1-5.982.348A4.168,4.168,0,0,1,300.4,92.086Zm28.28-.4H317.888a4.6,4.6,0,0,0,1.353,3.405,5.013,5.013,0,0,0,3.547,1.2,7.791,7.791,0,0,0,4.653-1.524v2.908a10.579,10.579,0,0,1-5.719,1.368,7.058,7.058,0,0,1-5.479-2.169,8.709,8.709,0,0,1-1.986-6.1,8.514,8.514,0,0,1,2.187-6.056,7.134,7.134,0,0,1,5.433-2.34,6.221,6.221,0,0,1,5.023,2.1,8.751,8.751,0,0,1,1.778,5.831Zm-4.28-5.607a4.707,4.707,0,0,1,.909,3.036H318a5.236,5.236,0,0,1,1.318-2.981,3.449,3.449,0,0,1,2.612-1.139A3.021,3.021,0,0,1,324.4,86.074Zm27.112,12.962a8.047,8.047,0,0,0,4.262-1.086V96.46a7.049,7.049,0,0,1-4.2,1.273,5.3,5.3,0,0,1-4.239-1.878,7.377,7.377,0,0,1-1.606-4.966,7.629,7.629,0,0,1,1.755-5.207,5.787,5.787,0,0,1,4.576-2.01,7.1,7.1,0,0,1,3.777,1.055V83.113a8.879,8.879,0,0,0-3.557-.745,7.582,7.582,0,0,0-5.8,2.413,8.715,8.715,0,0,0-2.257,6.2,8.376,8.376,0,0,0,2.006,5.828A6.767,6.767,0,0,0,351.509,99.036ZM365.2,84.178a2.785,2.785,0,0,0-1.675-.515,3.7,3.7,0,0,0-3.149,1.951,10.132,10.132,0,0,0-1.272,5.541v7.507h-1.4V82.68h1.4v3.543h.062a5.822,5.822,0,0,1,1.722-2.84,4.06,4.06,0,0,1,2.73-1.015,4.206,4.206,0,0,1,1.582.281Zm2.237-5.721a1.191,1.191,0,0,0,1.707-.016,1.21,1.21,0,0,0,.364-.881,1.083,1.083,0,0,0-.372-.865,1.279,1.279,0,0,0-.862-.32,1.222,1.222,0,0,0-.83.328,1.089,1.089,0,0,0-.372.857,1.2,1.2,0,0,0,.364.9Zm.011,20.2V82.742h1.5V98.662Zm6.3-2.834h.062a5.6,5.6,0,0,0,5.277,3.214,6.239,6.239,0,0,0,5.145-2.461,10.089,10.089,0,0,0,1.948-6.451,8.732,8.732,0,0,0-1.7-5.674,5.755,5.755,0,0,0-4.726-2.088,6.672,6.672,0,0,0-3.5.955,6.282,6.282,0,0,0-2.444,2.709h-.062V82.756h-1.428v23.21h1.428Zm.07-5.917v2a5.968,5.968,0,0,0,1.52,4.1,5.087,5.087,0,0,0,4,1.713,4.747,4.747,0,0,0,4-2.085,9.022,9.022,0,0,0,1.536-5.481,7.326,7.326,0,0,0-1.411-4.729,4.584,4.584,0,0,0-3.762-1.752,5.314,5.314,0,0,0-4.342,1.861A6.656,6.656,0,0,0,373.813,89.911Zm19.267,9.125a4.886,4.886,0,0,0,2.084-.527V97.176a3.907,3.907,0,0,1-1.9.574,1.991,1.991,0,0,1-1.752-.736,4.233,4.233,0,0,1-.517-2.38V84.154h4.168v-1.3H391v-4.6q-.34.124-.71.233-.371.124-.71.248v4.124h-2.84v1.3h2.84V94.82q0,4.217,3.5,4.217Z" transform="translate(-198.086 -55.726)" fill="#3178c6" fill-rule="evenodd"/>
    </g>
    <g id="ts-logo-256" transform="translate(687.888 2022.888)">
      <rect id="Retângulo_97" data-name="Retângulo 97" width="68" height="68" rx="8" transform="translate(0.112 0.112)" fill="#3178c6"/>
      <path id="Caminho_3363" data-name="Caminho 3363" d="M70.307,132.014v7.391a15.675,15.675,0,0,0,4.265,1.386,28.1,28.1,0,0,0,5.19.462,24.263,24.263,0,0,0,5.051-.508,12.388,12.388,0,0,0,4.2-1.674,8.537,8.537,0,0,0,2.855-3.049,10.737,10.737,0,0,0,.451-8.176,8.228,8.228,0,0,0-1.734-2.691,12.7,12.7,0,0,0-2.716-2.114,29.114,29.114,0,0,0-3.572-1.767q-1.456-.6-2.612-1.166a13.234,13.234,0,0,1-1.965-1.155,5.032,5.032,0,0,1-1.248-1.247,2.623,2.623,0,0,1-.439-1.49,2.489,2.489,0,0,1,.393-1.374,3.391,3.391,0,0,1,1.11-1.051,5.931,5.931,0,0,1,1.757-.682,10.2,10.2,0,0,1,2.312-.242,14.661,14.661,0,0,1,1.953.139,15.4,15.4,0,0,1,2.069.427,14.362,14.362,0,0,1,2.023.728,11.16,11.16,0,0,1,1.815,1.016V108.27a18.065,18.065,0,0,0-3.687-.959A30.049,30.049,0,0,0,83.183,107a21.333,21.333,0,0,0-4.993.566,12.7,12.7,0,0,0-4.149,1.767,8.835,8.835,0,0,0-2.832,3.061,8.971,8.971,0,0,0-1.04,4.446,8.617,8.617,0,0,0,1.907,5.636,14.512,14.512,0,0,0,5.79,3.95q1.526.624,2.843,1.224a15.822,15.822,0,0,1,2.277,1.247,5.965,5.965,0,0,1,1.514,1.409,2.87,2.87,0,0,1,.555,1.732,2.65,2.65,0,0,1-.347,1.328,3.074,3.074,0,0,1-1.052,1.062,5.769,5.769,0,0,1-1.757.7,10.566,10.566,0,0,1-2.462.254,14.048,14.048,0,0,1-4.762-.843,14.21,14.21,0,0,1-4.369-2.529ZM57.988,113.621h9.5v-6.086H41v6.086h9.458v27.1h7.53Z" transform="translate(-30.17 -78.508)" fill="#fff" fill-rule="evenodd"/>
    </g>
  </g>
</svg>
